<?xml version="1.0" encoding="UTF-8"?>
<svg id="Layer_1" data-name="Layer 1" xmlns="http://www.w3.org/2000/svg" viewBox="0 0 239.09 100" width="239px" height="100px">
  <defs>
    <style>
      .cls-1 {
        fill: #231f20;
      }

      .cls-2 {
        fill: #0089cf;
      }
    </style>
  </defs>
  <g>
    <path class="cls-2" d="M34.43,46.09c0-.21.16-.42.37-.42s.38.21.38.42-.16.37-.38.37-.37-.16-.37-.37"/>
    <path class="cls-2" d="M82.75,24.02c-2.19-.27-7.15.27-11.41,1.22,2.67-1.33,3.42-1.54,4.37-2.13.26-.16.43-.53.43-1.12,0-.64-.58-.74-1.27-.64-.7.06-2.19.59-4.01,1.23-3.63,1.49-8.85,3.94-15.03,8.11-5.44,3.73-9.06,6.93-13.01,10.93-1.03,1.05-2.21,2.36-3.45,3.82-.28-.48-.44-.59-.92-.46,1.39-3.15,1.54-3.31,2.29-5.12.32-.86.16-1.5-.16-1.87-.43-.75-1.02-.22-1.39.05-.58.69-.75.85-2.03,2.45,1.6-5.33,2.45-5.76,3.94-8.8.16-.37.16-1.01-.05-1.49-.16-.37-.37-.59-.69-.42-.59.27-.75.58-1.87,1.92,1.6-3.04,3.79-6.61,4-7.19.26-.64.63-.75-.05-1.71-.54-.8-1.01-.22-1.39.16-.32.16-.96.91-2.08,2.24,2.34-4.37,4.53-6.4,4.96-7.15.53-.85.59-1.07.16-2.03-.38-.85-1.13-.48-1.49,0-1.66,1.6-1.55,1.23-4.32,4.43,1.44-3.79,3.95-6.67,4.85-8.16.38-.58.43-.8.05-2.24-.21-.64-.74-.86-1.28-.8-.8.16-1.55.59-3.04,1.86-3.04,2.72-7.09,6.67-10.4,13.76-3.2,6.66-3.89,12.96-3.89,17.28,0,6.71,1.76,12.52,3.38,16.17,0-.14-.02-.25-.02-.39-.1-1.81.22-3.89.54-4.9.68-2.67,1.56-4.1,2.3-5.26l-1.29-1.77,1.71.53-1.01-2.24s1.28.15,2.28,1.47c.62-.56,1.88-1.06,3.1-.08.8-.06,1.28.11,1.71.32.91.53.8,1.49.74,1.7-.48-.43-1.81-1.28-3.25-.16l2.67.91-3.36.26v3.47l-4,3.56v1.37l2.74-2.41v1.26l-4.82,4.33v1.32l6.09-5.47h0s1.53-1.36,1.53-1.36h.01c.91-.74,1.28-1.11,1.82-1.38.64-.43.75.05.85.74.16.58.85,1.18,2.3-.16,4.26-3.84,8.74-5.92,13.48-8.21-2.56,1.75-7.3,4.36-8.9,6.13-.69.8,0,2.77,1.12,1.92,2.03-1.34,4.69-1.54,6.03-1.5.64,0,1.34-.42,1.71-.96.37-.48.37-1.01-.48-1.07,4.37-1.33,5.49-1.7,9.12-2.02.96-.05,1.55-.58,1.7-1.39.16-.74-.21-.96-1.12-1.06-1.07-.16-2.94.16-4.8.48,4.22-1.81,9.33-2.77,13.39-3.94,1.28-.37,1.44-.75,1.5-1.49.15-.8-.48-.8-1.92-.8-2.93.16-7.3.43-13.97,2.35,6.29-3.15,9.81-4.64,15.52-6.08,1.54-.43,1.81-.8,1.92-1.6.27-.91-.49-.91-1.01-.8-.8.05-2.72,0-6.62,1.17,3.8-1.65,7.94-3.57,10.93-4.53.65-.22,1.02-.64,1.02-1.34,0-.53-.16-.59-.8-.59-1.28,0-3.36.43-5.87,1.17,5.12-2.18,6.66-2.93,10.07-3.52,1.12-.27,1.34-.64,1.39-1.33.16-.96-.48-.91-1.22-.96M31.98,41.4c-.05-.43-.26-.69-.64-.9.75-1.81,1.49-3.26,2.93-5.17-1.33,2.67-1.97,4.91-2.3,6.08M27.34,39.91c1.01-10.88,5.97-18.88,9.34-22.55-4.85,7.15-7.63,17.06-9.34,22.55M45.47,43c6.35-6.02,15.04-12.42,26.02-15.14-9.28,3.3-22.02,12-26.02,15.14"/>
    <path class="cls-2" d="M58.27,57.82c-.58-1.6-2.13-2.67-4.26-2.5-1.17-2.24-3.04-1.18-3.57-.53.58.53,1.06.75,1.76.85v.48c-1.33-.05-1.76-.58-2.66-1.55-.38,3.2,3.36,4.33,4.53,1.71,1.76-.05,2.83.74,3.2,1.86.37,1.12,0,2.35-.59,2.93-1.07,1.28-2.78,1.28-4.32.48-.95-.48-1.98-1.49-2.88-2.45-1.33-1.49-2.08-2.14-3.1-2.67-.56-.26-1.11-.4-1.66-.48-.32-.06-.64-.1-.95-.11-.31,0-.59.03-.85.08-2.28.25-4.6,1.37-7.36,1.62h-1.49c-.93.81-5.38,4.8-5.38,4.8.21,1.65.26,2.45.26,3.94,0,1.23-.05,1.82-.05,2.35-.05.53-.16.96-.32,1.38-.11.38-.43.69-.96.75-.48.1-1.6-.75-1.97-.22-.32.43.05,1.44.37,1.7h3.15c.38-.8.53-1.28.75-1.75.27-.38.49-.97.69-1.34.22-.37.43-.91.54-1.28.05-.38.21-.75.26-1.01.22-.6.53-1.13.75-1.44.05-.1.12-.18.17-.26.14.21.27.41.36.57.75,1.18,1.39,2.09,2.45,2.51.42.21.69.38.85.54.16.15.16.64.11.95,0,.43-.16.8-.59.96-.7.27-1.81-.74-2.24-.21-.37.42.06,1.23.43,1.75h2.87c.7-1.12.96-2.66.96-3.94s0-1.65-.8-1.97c-.27-.16-.53-.8-.75-1.49,0-.08,0-.21,0-.37,1.37-.45,2.89-1.25,4.55-2.48,0,.22.02.44.04.66.26,1.82.47,3.47,1.86,4.8.37.38.69.75.74.96,0,.16-.21.74-.37,1.01-.32.69-1.01,1.27-1.54,1.33-.69.1-1.49-.8-2.03-.26-.48.48.16,1.49.48,1.75h2.93c.96-1.75,2.29-3.25,2.78-4.21.26-.69.26-.96-.27-1.17-.96-.54-.85-1.71-.58-3.04.07-.22.18-.44.3-.66.72,2.02,1.67,3.91,3.86,4.49.37.05.9.32.96.43,0,.1,0,.53-.06.85-.1.64-.48,1.39-.96,1.76-.53.43-1.86-.96-2.29-.16-.31.64.22,1.5.49,1.7h2.83c.79-1.75,1.49-3.31,1.71-4.42.21-1.34.21-1.82-.81-2.03-.53-.06-.96-.27-1.12-1.02-.38-1.33-.32-3.57-1.33-5.12,1.12,1.33,2.34,2.29,3.41,2.83,2.45,1.33,5.01.85,6.24-.91.8-1.34.8-2.83.48-3.79"/>
  </g>
  <g>
    <polygon class="cls-1" points="11 82.44 94.04 82.52 94.04 81.77 11 82.44"/>
    <rect class="cls-1" x="102.06" y="75.19" width="2.61" height="13.77"/>
    <polygon class="cls-1" points="106.49 77.46 110 77.46 110 88.96 112.64 88.96 112.64 77.46 116.15 77.46 116.15 75.19 106.49 75.19 106.49 77.46"/>
    <polygon class="cls-1" points="120.86 85.16 118.85 78.58 116.23 78.58 119.82 88.96 121.86 88.96 125.47 78.58 122.86 78.58 120.86 85.16"/>
    <path class="cls-1" d="M132.06,74.99c-3.33,0-5.01,1.84-5.01,5.49v3.15c0,3.65,1.64,5.49,4.93,5.49,1.54,0,2.77-.44,3.69-1.3.9-.86,1.36-2.26,1.36-4.19v-3.15c0-1.94-.44-3.35-1.34-4.21-.9-.86-2.1-1.28-3.63-1.28ZM134.42,83.59c0,1.1-.2,1.92-.58,2.42-.38.52-.98.78-1.78.78-.84,0-1.44-.26-1.82-.76-.38-.5-.56-1.3-.56-2.43v-2.97c0-1.2.18-2.06.56-2.57.38-.5.98-.76,1.82-.76s1.4.26,1.78.78c.38.54.58,1.38.58,2.55v2.97Z"/>
    <polygon class="cls-1" points="145.07 81.77 145.07 82.52 228.11 81.84 145.07 81.77"/>
    <path class="cls-1" d="M111.64,63.78l-9.07-25.44h-3.94l-9.03,25.44h5.09l1.55-4.94h8.74l1.55,4.94h5.13ZM97.52,54.82l3.06-9.77,3.1,9.77h-6.16Z"/>
    <path class="cls-1" d="M131.05,61.39c1.66-1.58,2.51-4.17,2.51-7.74v-5.2c0-3.58-.81-6.16-2.43-7.74-1.66-1.58-3.87-2.36-6.71-2.36h-8.96v25.44h8.81c2.84,0,5.12-.81,6.78-2.4ZM120.28,42.55h4.09c1.48,0,2.58.48,3.28,1.44.7,1,1.07,2.54,1.07,4.72v4.9c0,2.06-.37,3.58-1.07,4.53-.74.96-1.84,1.44-3.28,1.44h-4.09v-17.03Z"/>
    <path class="cls-1" d="M152.85,63.78h5.13l-9.07-25.44h-3.94l-9.03,25.44h5.09l1.55-4.94h8.74l1.55,4.94ZM143.85,54.82l3.06-9.77,3.1,9.77h-6.16Z"/>
  </g>
</svg>