<?xml version="1.0" encoding="UTF-8" standalone="no"?>
<svg
   xmlns:dc="http://purl.org/dc/elements/1.1/"
   xmlns:cc="http://creativecommons.org/ns#"
   xmlns:rdf="http://www.w3.org/1999/02/22-rdf-syntax-ns#"
   xmlns:svg="http://www.w3.org/2000/svg"
   xmlns="http://www.w3.org/2000/svg"
   viewBox="0 0 293.33334 186.66667"
   height="186.66667"
   width="293.33334"
   xml:space="preserve"
   id="svg2"
   version="1.1"><metadata
     id="metadata8"><rdf:RDF><cc:Work
         rdf:about=""><dc:format>image/svg+xml</dc:format><dc:type
           rdf:resource="http://purl.org/dc/dcmitype/StillImage" /></cc:Work></rdf:RDF></metadata><defs
     id="defs6" /><g
     transform="matrix(1.3333333,0,0,-1.3333333,0,186.66667)"
     id="g10"><g
       transform="scale(0.1)"
       id="g12"><path
         id="path14"
         style="fill:#646363;fill-opacity:1;fill-rule:nonzero;stroke:none"
         d="m 670.996,197.191 c -40.695,0 -73.805,33.11 -73.805,73.809 v 764.84 c 0,46.11 37.52,83.63 83.637,83.63 h 83.113 v 83.33 h 33.028 v -83.33 h 606.411 v 83.33 h 33.02 v -83.33 h 47.87 l -0.13,-0.09 h 35.03 c 46.12,0 83.64,-37.52 83.64,-83.64 V 550.809 L 1249.19,197.191 Z m -40.742,73.719 c 0,-22.48 18.293,-40.781 40.777,-40.781 h 554.989 v 270.129 c 0,40.695 33.11,73.805 73.81,73.805 h 270.12 V 884.961 H 630.266 V 282.051 Z M 1299.8,541.121 c -22.48,0 -40.78,-18.293 -40.78,-40.777 V 253.52 l 287.6,287.601 z M 681.012,1086.62 c -27.985,0 -50.746,-22.76 -50.746,-50.74 V 918.063 h 939.954 v 117.817 c 0,27.98 -22.76,50.74 -50.74,50.74 h -82.89 v -83.42 h -33.03 v 83.42 H 797.152 v -83.42 h -33.027 v 83.42 h -83.113" /><path
         id="path16"
         style="fill:#646363;fill-opacity:1;fill-rule:nonzero;stroke:none"
         d="m 740.566,741.625 v 33.023 h 33.028 v -33.023 h -33.028" /><path
         id="path18"
         style="fill:#646363;fill-opacity:1;fill-rule:nonzero;stroke:none"
         d="m 854.918,741.625 v 33.023 h 33.027 v -33.023 h -33.027" /><path
         id="path20"
         style="fill:#646363;fill-opacity:1;fill-rule:nonzero;stroke:none"
         d="m 969.234,741.625 v 33.023 h 33.026 v -33.023 h -33.026" /><path
         id="path22"
         style="fill:#646363;fill-opacity:1;fill-rule:nonzero;stroke:none"
         d="m 1083.68,741.625 v 33.023 h 33.03 v -33.023 h -33.03" /><path
         id="path24"
         style="fill:#646363;fill-opacity:1;fill-rule:nonzero;stroke:none"
         d="m 1198,741.625 v 33.023 h 33.02 V 741.625 H 1198" /><path
         id="path26"
         style="fill:#646363;fill-opacity:1;fill-rule:nonzero;stroke:none"
         d="m 1312.35,741.625 v 33.023 h 33.03 v -33.023 h -33.03" /><path
         id="path28"
         style="fill:#646363;fill-opacity:1;fill-rule:nonzero;stroke:none"
         d="m 1426.67,741.625 v 33.023 h 33.03 v -33.023 h -33.03" /><path
         id="path30"
         style="fill:#646363;fill-opacity:1;fill-rule:nonzero;stroke:none"
         d="m 740.566,340.379 v 33.019 h 33.028 v -33.019 h -33.028" /><path
         id="path32"
         style="fill:#646363;fill-opacity:1;fill-rule:nonzero;stroke:none"
         d="m 854.918,340.379 v 33.019 h 33.027 v -33.019 h -33.027" /><path
         id="path34"
         style="fill:#646363;fill-opacity:1;fill-rule:nonzero;stroke:none"
         d="m 969.234,340.379 v 33.019 h 33.026 v -33.019 h -33.026" /><path
         id="path36"
         style="fill:#646363;fill-opacity:1;fill-rule:nonzero;stroke:none"
         d="m 1083.68,340.379 v 33.019 h 33.03 v -33.019 h -33.03" /><path
         id="path38"
         style="fill:#646363;fill-opacity:1;fill-rule:nonzero;stroke:none"
         d="m 740.566,440.75 v 33.027 h 33.028 V 440.75 h -33.028" /><path
         id="path40"
         style="fill:#646363;fill-opacity:1;fill-rule:nonzero;stroke:none"
         d="m 854.918,440.75 v 33.027 h 33.027 V 440.75 h -33.027" /><path
         id="path42"
         style="fill:#646363;fill-opacity:1;fill-rule:nonzero;stroke:none"
         d="m 969.234,440.75 v 33.027 h 33.026 V 440.75 h -33.026" /><path
         id="path44"
         style="fill:#646363;fill-opacity:1;fill-rule:nonzero;stroke:none"
         d="m 1083.68,440.75 v 33.027 h 33.03 V 440.75 h -33.03" /><path
         id="path46"
         style="fill:#646363;fill-opacity:1;fill-rule:nonzero;stroke:none"
         d="m 740.566,540.984 v 33.028 h 33.028 v -33.028 h -33.028" /><path
         id="path48"
         style="fill:#646363;fill-opacity:1;fill-rule:nonzero;stroke:none"
         d="m 854.918,540.984 v 33.028 h 33.027 v -33.028 h -33.027" /><path
         id="path50"
         style="fill:#646363;fill-opacity:1;fill-rule:nonzero;stroke:none"
         d="m 969.234,540.984 v 33.028 h 33.026 v -33.028 h -33.026" /><path
         id="path52"
         style="fill:#646363;fill-opacity:1;fill-rule:nonzero;stroke:none"
         d="m 1083.68,540.984 v 33.028 h 33.03 v -33.028 h -33.03" /><path
         id="path54"
         style="fill:#646363;fill-opacity:1;fill-rule:nonzero;stroke:none"
         d="m 740.566,641.348 v 33.027 h 33.028 v -33.027 h -33.028" /><path
         id="path56"
         style="fill:#646363;fill-opacity:1;fill-rule:nonzero;stroke:none"
         d="m 854.918,641.348 v 33.027 h 33.027 v -33.027 h -33.027" /><path
         id="path58"
         style="fill:#646363;fill-opacity:1;fill-rule:nonzero;stroke:none"
         d="m 969.234,641.348 v 33.027 h 33.026 v -33.027 h -33.026" /><path
         id="path60"
         style="fill:#646363;fill-opacity:1;fill-rule:nonzero;stroke:none"
         d="m 1083.68,641.348 v 33.027 h 33.03 v -33.027 h -33.03" /><path
         id="path62"
         style="fill:#646363;fill-opacity:1;fill-rule:nonzero;stroke:none"
         d="m 1198,641.348 v 33.027 h 33.02 V 641.348 H 1198" /><path
         id="path64"
         style="fill:#646363;fill-opacity:1;fill-rule:nonzero;stroke:none"
         d="m 1312.35,641.348 v 33.027 h 33.03 v -33.027 h -33.03" /><path
         id="path66"
         style="fill:#646363;fill-opacity:1;fill-rule:nonzero;stroke:none"
         d="m 1426.67,641.348 v 33.027 h 33.03 v -33.027 h -33.03" /></g></g></svg>