<?xml version="1.0" encoding="UTF-8" standalone="no"?>
<svg
   xmlns:dc="http://purl.org/dc/elements/1.1/"
   xmlns:cc="http://creativecommons.org/ns#"
   xmlns:rdf="http://www.w3.org/1999/02/22-rdf-syntax-ns#"
   xmlns:svg="http://www.w3.org/2000/svg"
   xmlns="http://www.w3.org/2000/svg"
   viewBox="0 0 293.33334 186.66667"
   height="186.66667"
   width="293.33334"
   xml:space="preserve"
   id="svg2"
   version="1.1"><metadata
     id="metadata8"><rdf:RDF><cc:Work
         rdf:about=""><dc:format>image/svg+xml</dc:format><dc:type
           rdf:resource="http://purl.org/dc/dcmitype/StillImage" /></cc:Work></rdf:RDF></metadata><defs
     id="defs6" /><g
     transform="matrix(1.3333333,0,0,-1.3333333,0,186.66667)"
     id="g10"><g
       transform="scale(0.1)"
       id="g12"><path
         id="path14"
         style="fill:#c5503a;fill-opacity:1;fill-rule:nonzero;stroke:none"
         d="m 1814.45,1107.03 h -136.2 v 104.48 c 0,7.66 -6.02,13.68 -13.13,13.68 -188.18,4.37 -377.43,-29.54 -561.8,-102.84 -184.34,73.3 -372.515,107.76 -561.8,102.84 -7.114,0 -13.129,-6.02 -13.129,-13.68 V 1107.03 H 392.184 c -7.661,0 -13.676,-6.02 -13.676,-13.67 V 220.852 c 0,-7.661 6.015,-13.68 13.676,-13.68 H 1041.5 c 12.59,-20.242 36.11,-32.82 61.82,-32.82 25.71,0 49.23,12.578 61.81,32.82 h 649.32 c 7.66,0 13.68,6.019 13.68,13.68 v 872.508 c 0,7.65 -6.02,13.67 -13.68,13.67 z m -163.55,91.35 v -871.4 c -176.13,9.301 -355.55,-22.968 -533.89,-97.91 v 869.21 c 8.2,3.28 15.86,6.02 24.07,8.75 167.93,63.45 339.69,93.54 509.82,91.35 z m -1095.123,0 c 170.118,2.19 341.883,-27.9 509.823,-91.35 8.21,-2.73 15.87,-5.47 24.07,-8.75 V 229.07 c -157.541,66.192 -316.162,99.559 -472.623,99.559 -20.789,0 -41.027,-0.551 -61.27,-1.649 z M 405.895,234.551 V 1079.69 H 528.43 V 312.211 c 0,-3.832 1.64,-7.66 4.375,-9.852 2.734,-2.73 6.562,-4.371 10.39,-3.828 149.887,10.399 303.035,-10.941 455.664,-64 z m 1394.915,0 h -592.97 c 152.61,53.058 305.8,74.39 455.66,64 3.83,-0.551 7.66,1.09 10.4,3.828 2.73,2.18 4.37,6.012 4.37,9.84 V 1079.7 h 122.54 z M 666.305,1033.2 c 0,7.66 7.113,13.12 13.675,13.68 102.84,-2.2 199.657,-15.87 288.829,-41.58 7.113,-2.19 11.488,-9.847 9.3,-16.96 -1.64,-6.016 -7.113,-9.844 -13.129,-9.844 h -3.828 c -86.429,24.614 -181.074,38.294 -281.726,40.474 -7.656,0 -13.672,6.57 -13.672,13.68 z m 0,-109.407 c 0,7.656 7.113,13.129 13.675,13.676 102.84,-2.188 199.657,-15.864 288.829,-41.574 7.113,-2.188 11.488,-9.848 9.3,-16.957 -1.64,-6.016 -7.113,-9.848 -13.129,-9.848 h -3.828 c -86.429,24.617 -181.074,38.293 -281.726,40.48 -7.656,0 -13.672,6.563 -13.672,13.676 z m 0,-109.406 c 0,7.66 7.113,13.129 13.675,13.676 102.84,-2.188 199.657,-15.864 288.829,-41.575 7.113,-2.187 11.488,-9.843 9.3,-16.957 -1.64,-6.015 -7.113,-9.843 -13.129,-9.843 h -3.828 c -86.429,24.613 -181.074,38.289 -281.726,40.48 -7.656,0 -13.672,6.562 -13.672,13.672 z m 0,-109.403 c 0,7.657 7.113,13.676 13.675,13.676 102.84,-2.187 199.657,-15.863 288.829,-41.574 7.113,-2.188 11.488,-9.848 9.3,-16.957 -1.64,-6.02 -7.113,-9.848 -13.129,-9.848 h -3.828 c -86.429,24.617 -181.074,38.293 -281.726,40.481 -7.656,0 -13.672,6.562 -13.672,13.676 z m 0,-109.406 c 0,7.66 7.113,13.676 13.675,13.676 102.84,-2.188 199.657,-15.863 288.829,-41.57 7.113,-2.192 11.488,-9.848 9.3,-16.961 -1.64,-6.016 -7.113,-9.844 -13.129,-9.844 h -3.828 c -86.429,24.613 -181.074,38.289 -281.726,40.476 -7.656,0 -13.672,6.567 -13.672,13.676 z m 0,-109.402 c 0,7.66 7.113,13.676 13.675,13.676 102.84,-2.188 199.657,-15.864 288.829,-41.575 7.113,-2.187 11.488,-9.847 9.3,-16.957 -1.64,-6.019 -7.113,-9.847 -13.129,-9.847 h -3.828 c -86.429,24.617 -181.074,38.293 -281.726,40.48 -7.656,0 -13.672,6.563 -13.672,13.676 z m 562.335,502.179 c -2.18,7.114 2.19,14.775 9.3,16.955 88.62,25.71 185.99,39.39 288.83,41.58 7.66,0 13.68,-6.02 13.68,-13.68 0,-7.66 -6.02,-13.67 -13.68,-13.67 -100.1,-2.19 -195.28,-15.32 -281.72,-40.485 h -3.83 c -6.02,0 -11.49,3.832 -13.13,9.847 z m 0,-109.402 c -2.18,7.11 2.19,14.77 9.3,16.957 88.62,25.707 185.99,39.387 288.83,41.574 7.66,0 13.68,-6.019 13.68,-13.675 0,-7.661 -6.02,-13.676 -13.68,-13.676 -100.1,-1.641 -194.74,-15.317 -281.72,-40.481 h -3.83 c -6.02,0 -11.49,3.828 -13.13,9.848 z m 0,-109.406 c -2.18,7.109 2.19,14.769 9.3,16.957 88.62,25.711 185.99,39.387 288.83,41.574 7.66,0 13.68,-6.015 13.68,-13.676 0,-7.656 -6.02,-13.675 -13.68,-13.675 -100.1,-1.641 -194.74,-15.317 -281.72,-40.481 h -3.83 c -6.02,0 -11.49,3.832 -13.13,9.848 z m 0,-109.402 c -2.18,7.109 2.19,14.769 9.3,16.957 88.62,25.711 185.99,39.382 288.83,41.574 7.66,0 13.68,-6.02 13.68,-13.676 0,-7.66 -6.02,-13.676 -13.68,-13.676 -100.1,-2.187 -195.28,-15.316 -281.72,-40.48 h -3.83 c -6.02,0 -11.49,3.828 -13.13,9.847 z m 0,-109.407 c -2.18,7.114 2.19,14.77 9.3,16.957 88.62,25.711 185.99,39.387 288.83,41.575 7.66,0 13.68,-6.016 13.68,-13.676 0,-7.656 -6.02,-13.676 -13.68,-13.676 -100.65,-2.188 -195.28,-15.316 -281.72,-40.48 h -3.83 c -6.02,0 -11.49,3.832 -13.13,9.847 z m 0,-109.402 c -2.18,7.109 2.19,14.769 9.3,16.957 88.62,25.711 185.99,39.383 288.83,41.574 7.66,0 13.68,-6.019 13.68,-13.676 0,-7.66 -6.02,-13.675 -13.68,-13.675 -100.65,-2.192 -195.28,-15.317 -281.72,-40.481 h -3.83 c -6.02,0 -11.49,3.828 -13.13,9.848 l 0.55,-0.547" /></g></g></svg>