<?xml version="1.0" encoding="UTF-8"?>
<svg id="Layer_1" data-name="Layer 1" xmlns="http://www.w3.org/2000/svg" viewBox="0 0 336.45 100" width="336px" height="100px">
  <defs>
    <style>
      .cls-1 {
        fill: #231f20;
      }

      .cls-2 {
        fill: #0089cf;
      }
    </style>
  </defs>
  <g>
    <path class="cls-2" d="M37.37,49.63c0-.21.16-.42.37-.42s.38.21.38.42-.16.37-.38.37-.37-.16-.37-.37"/>
    <path class="cls-2" d="M85.69,27.56c-2.19-.27-7.15.27-11.41,1.22,2.67-1.33,3.42-1.54,4.37-2.13.26-.16.43-.53.43-1.12,0-.64-.58-.74-1.27-.64-.7.06-2.19.59-4.01,1.23-3.63,1.49-8.85,3.94-15.03,8.11-5.44,3.73-9.06,6.93-13.01,10.93-1.03,1.05-2.21,2.36-3.45,3.82-.28-.48-.44-.59-.92-.46,1.39-3.15,1.54-3.31,2.29-5.12.32-.86.16-1.5-.16-1.87-.43-.75-1.02-.22-1.39.05-.58.69-.75.85-2.03,2.45,1.6-5.33,2.45-5.76,3.94-8.8.16-.37.16-1.01-.05-1.49-.16-.37-.37-.59-.69-.42-.59.27-.75.58-1.87,1.92,1.6-3.04,3.79-6.61,4-7.19.26-.64.63-.75-.05-1.71-.54-.8-1.01-.22-1.39.16-.32.16-.96.91-2.08,2.24,2.34-4.37,4.53-6.4,4.96-7.15.53-.85.59-1.07.16-2.03-.38-.85-1.13-.48-1.49,0-1.66,1.6-1.55,1.23-4.32,4.43,1.44-3.79,3.95-6.67,4.85-8.16.38-.58.43-.8.05-2.24-.21-.64-.74-.86-1.28-.8-.8.16-1.55.59-3.04,1.86-3.04,2.72-7.09,6.67-10.4,13.76-3.2,6.66-3.89,12.96-3.89,17.28,0,6.71,1.76,12.52,3.38,16.17,0-.14-.02-.25-.02-.39-.1-1.81.22-3.89.54-4.9.68-2.67,1.56-4.1,2.3-5.26l-1.29-1.77,1.71.53-1.01-2.24s1.28.15,2.28,1.47c.62-.56,1.88-1.06,3.1-.08.8-.06,1.28.11,1.71.32.91.53.8,1.49.74,1.7-.48-.43-1.81-1.28-3.25-.16l2.67.91-3.36.26v3.47l-4,3.56v1.37l2.74-2.41v1.26l-4.82,4.33v1.32l6.09-5.47h0s1.53-1.36,1.53-1.36h.01c.91-.74,1.28-1.11,1.82-1.38.64-.43.75.05.85.74.16.58.85,1.18,2.3-.16,4.26-3.84,8.74-5.92,13.48-8.21-2.56,1.75-7.3,4.36-8.9,6.13-.69.8,0,2.77,1.12,1.92,2.03-1.34,4.69-1.54,6.03-1.5.64,0,1.34-.42,1.71-.96.37-.48.37-1.01-.48-1.07,4.37-1.33,5.49-1.7,9.12-2.02.96-.05,1.55-.58,1.7-1.39.16-.74-.21-.96-1.12-1.06-1.07-.16-2.94.16-4.8.48,4.22-1.81,9.33-2.77,13.39-3.94,1.28-.37,1.44-.75,1.5-1.49.15-.8-.48-.8-1.92-.8-2.93.16-7.3.43-13.97,2.35,6.29-3.15,9.81-4.64,15.52-6.08,1.54-.43,1.81-.8,1.92-1.6.27-.91-.49-.91-1.01-.8-.8.05-2.72,0-6.62,1.17,3.8-1.65,7.94-3.57,10.93-4.53.65-.22,1.02-.64,1.02-1.34,0-.53-.16-.59-.8-.59-1.28,0-3.36.43-5.87,1.17,5.12-2.18,6.66-2.93,10.07-3.52,1.12-.27,1.34-.64,1.39-1.33.16-.96-.48-.91-1.22-.96M34.92,44.93c-.05-.43-.26-.69-.64-.9.75-1.81,1.49-3.26,2.93-5.17-1.33,2.67-1.97,4.91-2.3,6.08M30.28,43.45c1.01-10.88,5.97-18.88,9.34-22.55-4.85,7.15-7.63,17.06-9.34,22.55M48.41,46.53c6.35-6.02,15.04-12.42,26.02-15.14-9.28,3.3-22.02,12-26.02,15.14"/>
    <path class="cls-2" d="M61.21,61.36c-.58-1.6-2.13-2.67-4.26-2.5-1.17-2.24-3.04-1.18-3.57-.53.58.53,1.06.75,1.76.85v.48c-1.33-.05-1.76-.58-2.66-1.55-.38,3.2,3.36,4.33,4.53,1.71,1.76-.05,2.83.74,3.2,1.86.37,1.12,0,2.35-.59,2.93-1.07,1.28-2.78,1.28-4.32.48-.95-.48-1.98-1.49-2.88-2.45-1.33-1.49-2.08-2.14-3.1-2.67-.56-.26-1.11-.4-1.66-.48-.32-.06-.64-.1-.95-.11-.31,0-.59.03-.85.08-2.28.25-4.6,1.37-7.36,1.62h-1.49c-.93.81-5.38,4.8-5.38,4.8.21,1.65.26,2.45.26,3.94,0,1.23-.05,1.82-.05,2.35-.05.53-.16.96-.32,1.38-.11.38-.43.69-.96.75-.48.1-1.6-.75-1.97-.22-.32.43.05,1.44.37,1.7h3.15c.38-.8.53-1.28.75-1.75.27-.38.49-.97.69-1.34.22-.37.43-.91.54-1.28.05-.38.21-.75.26-1.01.22-.6.53-1.13.75-1.44.05-.1.12-.18.17-.26.14.21.27.41.36.57.75,1.18,1.39,2.09,2.45,2.51.42.21.69.38.85.54.16.15.16.64.11.95,0,.43-.16.8-.59.96-.7.27-1.81-.74-2.24-.21-.37.42.06,1.23.43,1.75h2.87c.7-1.12.96-2.66.96-3.94s0-1.65-.8-1.97c-.27-.16-.53-.8-.75-1.49,0-.08,0-.21,0-.37,1.37-.45,2.89-1.25,4.55-2.48,0,.22.02.44.04.66.26,1.82.47,3.47,1.86,4.8.37.38.69.75.74.96,0,.16-.21.74-.37,1.01-.32.69-1.01,1.27-1.54,1.33-.69.1-1.49-.8-2.03-.26-.48.48.16,1.49.48,1.75h2.93c.96-1.75,2.29-3.25,2.78-4.21.26-.69.26-.96-.27-1.17-.96-.54-.85-1.71-.58-3.04.07-.22.18-.44.3-.66.72,2.02,1.67,3.91,3.86,4.49.37.05.9.32.96.43,0,.1,0,.53-.06.85-.1.64-.48,1.39-.96,1.76-.53.43-1.86-.96-2.29-.16-.31.64.22,1.5.49,1.7h2.83c.79-1.75,1.49-3.31,1.71-4.42.21-1.34.21-1.82-.81-2.03-.53-.06-.96-.27-1.12-1.02-.38-1.33-.32-3.57-1.33-5.12,1.12,1.33,2.34,2.29,3.41,2.83,2.45,1.33,5.01.85,6.24-.91.8-1.34.8-2.83.48-3.79"/>
  </g>
  <g>
    <path class="cls-1" d="M74.41,74.18c76.65.46,162.64.46,239.29,0-76.65-.46-162.64-.46-239.29,0Z"/>
    <rect class="cls-1" x="81.36" y="44" width="4.05" height="21.33"/>
    <polygon class="cls-1" points="93.66 65.33 97.74 65.33 97.74 47.52 103.18 47.52 103.18 44 88.22 44 88.22 47.52 93.66 47.52 93.66 65.33"/>
    <polygon class="cls-1" points="120.04 65.33 125.64 49.26 121.59 49.26 118.5 59.46 115.37 49.26 111.33 49.26 116.89 65.33 120.04 65.33"/>
    <path class="cls-1" d="M133.82,65.51c2.01,0,3.59-.56,4.73-1.64,1.14-1.08,1.73-2.78,1.73-5.1v-3c0-2.29-.59-3.99-1.73-5.07-1.14-1.08-2.72-1.64-4.73-1.64s-3.62.56-4.76,1.64c-1.17,1.08-1.76,2.78-1.76,5.07v3c0,2.32.59,4.02,1.76,5.1,1.14,1.08,2.75,1.64,4.76,1.64ZM131.1,55.84c0-2.26.9-3.37,2.72-3.37s2.66,1.11,2.66,3.37v2.91c0,2.26-.9,3.37-2.66,3.37s-2.72-1.11-2.72-3.37v-2.91Z"/>
    <path class="cls-1" d="M150.2,65.51c2.01,0,3.59-.56,4.73-1.64,1.14-1.08,1.73-2.78,1.73-5.1v-3c0-2.29-.59-3.99-1.73-5.07-1.14-1.08-2.72-1.64-4.73-1.64s-3.62.56-4.76,1.64c-1.17,1.08-1.76,2.78-1.76,5.07v3c0,2.32.59,4.02,1.76,5.1,1.14,1.08,2.75,1.64,4.76,1.64ZM147.48,55.84c0-2.26.9-3.37,2.72-3.37s2.66,1.11,2.66,3.37v2.91c0,2.26-.9,3.37-2.66,3.37s-2.72-1.11-2.72-3.37v-2.91Z"/>
    <path class="cls-1" d="M164.16,55.68c0-1.08.28-1.95.87-2.53.56-.59,1.3-.87,2.23-.87.56,0,1.2.12,1.92.34v-3.58c-.4-.09-.83-.12-1.3-.12-.83,0-1.58.15-2.22.49-.65.34-1.17.84-1.58,1.52v-1.67h-3.74v16.07h3.83v-9.65Z"/>
    <path class="cls-1" d="M187.21,65.58c2.38,0,4.3-.68,5.72-2.01,1.39-1.33,2.1-3.49,2.1-6.49v-4.88c0-3-.68-5.19-2.07-6.52-1.39-1.33-3.25-1.98-5.63-1.98-5.16,0-7.76,2.84-7.76,8.5v4.88c0,5.66,2.53,8.5,7.64,8.5ZM183.65,52.41c0-1.86.28-3.18.86-3.99.59-.77,1.52-1.17,2.81-1.17s2.17.4,2.75,1.21c.59.83.9,2.13.9,3.96v4.61c0,1.7-.31,2.97-.9,3.74-.59.8-1.52,1.21-2.75,1.21s-2.22-.4-2.81-1.17c-.59-.77-.86-2.01-.86-3.77v-4.61Z"/>
    <path class="cls-1" d="M202.06,55.31c0-.9.25-1.61.74-2.1.47-.5,1.08-.74,1.83-.74s1.36.25,1.82.74c.46.49.68,1.2.68,2.1v10.02h3.83v-10.48c0-1.79-.46-3.22-1.36-4.23-.9-1.02-2.19-1.55-3.83-1.55-.71,0-1.42.12-2.07.4-.68.28-1.27.71-1.73,1.24v-1.45h-3.74v16.07h3.83v-10.02Z"/>
    <path class="cls-1" d="M219.95,65.51c1.64,0,2.87-.56,3.77-1.67v1.48h3.74v-21.33h-3.8v6.89c-.9-1.21-2.13-1.82-3.74-1.82s-2.84.56-3.8,1.64c-.99,1.08-1.48,2.75-1.48,4.98v3.18c0,2.23.5,3.9,1.52,4.98.99,1.11,2.26,1.67,3.8,1.67ZM218.47,55.84c0-2.26.87-3.37,2.57-3.37.83,0,1.48.28,1.95.87.46.59.68,1.42.68,2.5v2.91c0,1.08-.25,1.92-.71,2.5-.46.59-1.14.87-2.01.87-1.64,0-2.47-1.11-2.47-3.37v-2.91Z"/>
    <path class="cls-1" d="M237.87,65.51c1.95,0,3.49-.46,4.64-1.39,1.14-.93,1.7-2.16,1.7-3.68v-.15h-3.65l-.03.09c-.03.59-.28,1.02-.71,1.33-.43.34-1.02.49-1.79.49-.99,0-1.76-.25-2.29-.77-.53-.52-.8-1.36-.8-2.57v-.43h9.4v-2.13c0-2.38-.59-4.2-1.76-5.41-1.21-1.21-2.81-1.82-4.82-1.82s-3.68.59-4.85,1.79c-1.17,1.21-1.76,3.03-1.76,5.44v1.95c0,2.47.62,4.3,1.83,5.47,1.2,1.21,2.84,1.79,4.91,1.79ZM234.94,55.72c0-1.21.25-2.07.74-2.6.46-.52,1.17-.77,2.07-.77,1.82,0,2.75,1.02,2.75,3.06v.4h-5.56v-.09Z"/>
    <path class="cls-1" d="M251.84,55.68c0-1.08.28-1.95.87-2.53.56-.59,1.3-.87,2.23-.87.56,0,1.2.12,1.92.34v-3.58c-.4-.09-.83-.12-1.3-.12-.83,0-1.58.15-2.22.49-.65.34-1.17.84-1.58,1.52v-1.67h-3.74v16.07h3.83v-9.65Z"/>
    <polygon class="cls-1" points="270.69 62.11 263.58 62.11 270.69 52.47 270.69 49.26 259.4 49.26 259.4 52.47 266.52 52.47 259.4 62.11 259.4 65.33 270.69 65.33 270.69 62.11"/>
    <path class="cls-1" d="M279.99,65.51c2.01,0,3.59-.56,4.73-1.64,1.14-1.08,1.73-2.78,1.73-5.1v-3c0-2.29-.59-3.99-1.73-5.07-1.14-1.08-2.72-1.64-4.73-1.64s-3.62.56-4.76,1.64c-1.17,1.08-1.76,2.78-1.76,5.07v3c0,2.32.59,4.02,1.76,5.1,1.14,1.08,2.75,1.64,4.76,1.64ZM277.27,55.84c0-2.26.9-3.37,2.72-3.37s2.66,1.11,2.66,3.37v2.91c0,2.26-.9,3.37-2.66,3.37s-2.72-1.11-2.72-3.37v-2.91Z"/>
    <path class="cls-1" d="M296.58,65.51c1.95,0,3.49-.46,4.64-1.39,1.14-.93,1.7-2.16,1.7-3.68v-.15h-3.65l-.03.09c-.03.59-.28,1.02-.71,1.33-.43.34-1.02.49-1.79.49-.99,0-1.76-.25-2.29-.77-.53-.52-.8-1.36-.8-2.57v-.43h9.4v-2.13c0-2.38-.59-4.2-1.76-5.41-1.21-1.21-2.81-1.82-4.82-1.82s-3.68.59-4.85,1.79c-1.17,1.21-1.76,3.03-1.76,5.44v1.95c0,2.47.62,4.3,1.83,5.47,1.2,1.21,2.84,1.79,4.91,1.79ZM293.64,55.72c0-1.21.25-2.07.74-2.6.46-.52,1.17-.77,2.07-.77,1.82,0,2.75,1.02,2.75,3.06v.4h-5.56v-.09Z"/>
    <polygon class="cls-1" points="314.78 55.65 320.28 49.26 315.74 49.26 310.54 55.93 310.54 44 306.71 44 306.71 65.33 310.54 65.33 310.54 60.57 312.24 58.59 316.04 65.33 320.68 65.33 314.78 55.65"/>
  </g>
</svg>