<svg xmlns="http://www.w3.org/2000/svg" width="924" height="274" viewBox="0 0 924 274" fill="none"><path d="M823 103.9H824.2V100.7H824.9C825.8 100.7 826.2 101 827.1 102.7L827.8 103.9H829.3L828.4 102.4C827.8 101.4 827.3 100.7 826.6 100.5C827.9 100.4 828.8 99.5 828.8 98.3C828.8 97.5 828.2 96.3 826.3 96.3H823V103.9ZM824.2 99.6V97.4H826.2C827 97.4 827.6 97.9 827.6 98.5C827.6 99.3 827 99.7 826 99.7H824.2V99.6ZM831.9 100C831.9 103.2 829.3 105.9 826 105.9C822.7 105.9 820.1 103.3 820.1 100C820.1 96.7 822.7 94.1 826 94.1C829.3 94.1 831.9 96.7 831.9 100ZM833.1 100C833.1 96.1 829.9 93 826 93C822.1 93 819 96.1 819 100C819 103.9 822.1 107.1 826 107.1C829.9 107 833.1 103.9 833.1 100Z" fill="#003C46"></path><path d="M239.1 179.8V117.9H253.6V179.8H239.1Z" fill="#003C46"></path><path d="M286.9 179.8V111.7H263.4V97.6001H326.4V111.7H302.2V179.8H286.9Z" fill="#003C46"></path><path d="M385.1 127.9C383.5 124.1 381.1 121.3 377.9 119.4C374.8 117.5 370.9 116.6 366.2 116.6C362.9 116.6 359.7 117.3 356.6 118.7C353.5 120.1 350.8 122 348.5 124.3C347.8 125 347.2 125.7 346.6 126.5V92.8H332.3V179.7C333.3 179.7 334.4 179.7 335.6 179.7C336.9 179.7 338.2 179.7 339.6 179.7H346.8V142.3C346.8 140.4 347.2 138.7 347.9 137.1C348.7 135.5 349.7 134.2 351 133C352.3 131.7 353.9 130.8 355.6 130.2C357.4 129.5 359.4 129.1 361.5 129.1C364.1 129 366.3 129.5 368.1 130.5C369.9 131.4 371.2 133 372.1 135.1C373 137.1 373.4 139.7 373.4 142.9V179.7H387.9V141.9C387.6 136.4 386.8 131.7 385.1 127.9Z" fill="#003C46"></path><path d="M452.4 147C452.5 142.6 451.8 138.6 450.4 134.9C449.1 131.1 447.1 127.9 444.5 125.3C441.9 122.6 438.9 120.4 435.3 118.8C431.8 117.2 428 116.5 423.9 116.5C419.3 116.5 415 117.3 411.1 119C407.3 120.6 403.9 122.8 401.1 125.8C398.4 128.7 396.2 132.1 394.6 136.1C393 140.1 392.2 144.5 392.2 149.4C392.2 155.5 393.6 161 396.3 165.7C399.1 170.4 403 174.1 407.9 176.9C412.9 179.6 418.7 181 425.2 181C428.1 181 431 180.6 434 179.8C437 179 439.8 178 442.5 176.6C445.2 175.2 447.7 173.5 449.8 171.5L442.6 161.5C439.8 163.9 437.2 165.6 434.7 166.6C432.3 167.5 429.6 168 426.7 168C422.5 168 418.9 167.2 415.8 165.7C412.7 164.1 410.4 161.7 408.6 158.8C407.5 156.8 406.8 154.6 406.4 152.1H452.1L452.4 147ZM414.2 131.5C416.9 130 420.1 129.3 424 129.3C426.5 129.3 428.8 129.8 430.8 130.9C432.9 131.9 434.6 133.4 436 135.2C437.3 137 438.1 139.1 438.3 141.5V142.1H406.9C407.2 140.5 407.7 139.1 408.3 137.9C409.6 135.2 411.6 133 414.2 131.5Z" fill="#003C46"></path><path d="M511.5 127.9C509.9 124.1 507.5 121.3 504.3 119.4C501.2 117.5 497.3 116.6 492.6 116.6C489.3 116.6 486.1 117.3 483 118.7C479.9 120.1 477.2 122 474.9 124.3C474.2 125 473.5 125.8 472.9 126.6L472.7 117.9H458.6V179.8C459.6 179.8 460.7 179.8 461.9 179.8C463.2 179.8 464.5 179.8 465.9 179.8H473.1V142.4C473.1 140.5 473.5 138.8 474.2 137.2C475 135.6 476 134.3 477.3 133.1C478.6 131.8 480.2 130.9 481.9 130.3C483.7 129.6 485.7 129.2 487.8 129.2C490.4 129.1 492.6 129.6 494.4 130.6C496.2 131.5 497.5 133.1 498.4 135.2C499.3 137.2 499.7 139.8 499.7 143V179.8H514V142C514 136.4 513.2 131.7 511.5 127.9Z" fill="#003C46"></path><path d="M564.6 179.8V117.9H579V179.8H564.6Z" fill="#003C46"></path><path d="M617.4 181C611.6 181 606.4 179.6 601.8 176.8C597.2 174 593.5 170.1 590.9 165.3C588.2 160.4 586.9 155 586.9 148.9C586.9 142.8 588.2 137.3 590.9 132.5C593.6 127.7 597.2 123.8 601.8 121C606.4 118.2 611.6 116.8 617.4 116.8C623 116.8 628 117.9 632.6 120C637.1 122.1 640.7 125.1 643.2 128.8L635.2 138.4C634 136.8 632.5 135.3 630.7 133.9C628.9 132.6 627 131.5 624.9 130.7C622.9 129.9 620.8 129.5 618.8 129.5C615.4 129.5 612.3 130.4 609.5 132.1C606.8 133.7 604.7 136.1 603.2 139C601.6 141.9 600.9 145.2 600.9 148.9C600.9 152.6 601.7 155.9 603.2 158.8C604.8 161.7 607 164 609.8 165.7C612.5 167.4 615.6 168.3 619 168.3C621 168.3 623 168 624.9 167.4C626.9 166.7 628.7 165.7 630.4 164.5C632.1 163.2 633.7 161.7 635.2 159.8L643.2 169.6C640.5 173 636.9 175.9 632.2 178.1C627.5 179.9 622.6 181 617.4 181Z" fill="#003C46"></path><path d="M694.8 117.9V126.7C693.6 124.9 692.2 123.2 690.5 121.8C688.5 120.2 686.3 118.9 683.7 118C681.1 117.1 678.3 116.6 675.1 116.6C669.7 116.6 664.8 118 660.5 120.7C656.2 123.4 652.8 127.2 650.3 132.1C647.8 137 646.5 142.5 646.5 148.7C646.5 154.9 647.8 160.4 650.3 165.3C652.8 170.2 656.1 174 660.3 176.8C664.5 179.6 669.1 181 674.2 181C677.2 181 680 180.5 682.5 179.6C685.2 178.7 687.6 177.4 689.7 176C691.7 174.6 693.4 172.9 694.8 171.2V179.9H709.5V118H694.8V117.9ZM687 165.7C684.4 167.3 681.4 168.2 678.1 168.2C674.7 168.2 671.8 167.4 669.2 165.7C666.7 164.1 664.7 161.8 663.3 158.9C661.9 155.9 661.2 152.5 661.2 148.7C661.2 144.9 661.9 141.6 663.3 138.7C664.7 135.8 666.7 133.5 669.2 131.9C671.8 130.3 674.8 129.4 678.1 129.4C681.5 129.4 684.4 130.2 687 131.9C689.6 133.5 691.6 135.8 693 138.7C694.5 141.6 695.2 144.9 695.2 148.7C695.2 152.5 694.5 155.9 693 158.9C691.6 161.8 689.6 164.1 687 165.7Z" fill="#003C46"></path><path d="M823.2 147C823.3 142.6 822.6 138.6 821.2 134.9C819.9 131.1 817.9 127.9 815.3 125.3C812.7 122.6 809.7 120.4 806.1 118.8C802.6 117.2 798.8 116.5 794.7 116.5C790.1 116.5 785.8 117.3 781.9 119C778.1 120.6 774.7 122.8 771.9 125.8C769.2 128.7 767 132.1 765.4 136.1C763.8 140.1 763.1 144.5 763.1 149.4C763.1 155.5 764.5 161 767.2 165.7C770 170.4 773.9 174.1 778.8 176.9C783.8 179.6 789.6 181 796.1 181C799 181 801.9 180.6 804.9 179.8C807.9 179 810.7 178 813.4 176.6C816.1 175.2 818.6 173.5 820.7 171.5L813.5 161.5C810.7 163.9 808.1 165.6 805.6 166.6C803.2 167.5 800.5 168 797.6 168C793.4 168 789.8 167.2 786.7 165.7C783.6 164.1 781.3 161.7 779.5 158.8C778.4 156.8 777.7 154.6 777.3 152.1H823L823.2 147ZM785 131.5C787.7 130 790.9 129.3 794.8 129.3C797.3 129.3 799.6 129.8 801.6 130.9C803.7 131.9 805.4 133.4 806.8 135.2C808.1 137 808.9 139.1 809.1 141.5V142.1H777.7C778 140.5 778.5 139.1 779.1 137.9C780.5 135.2 782.4 133 785 131.5Z" fill="#003C46"></path><path d="M543.2 102.8H529.4V118H517V131.6H529.3V163.5L529.4 163.4C530.1 175.2 535.4 179.8 547.9 179.8C552 179.8 554.2 179.6 554.3 179.6L555.3 179.5V166.8L554.1 166.9C554.1 166.9 551.5 167.1 550.3 167.1C544.4 167.1 543.2 165.7 543.2 159V131.6H557V118H543.2V102.8Z" fill="#003C46"></path><path d="M743.2 102.8H729.4V118H717V131.6H729.3V163.5L729.4 163.4C730.1 175.2 735.4 179.8 747.9 179.8C752 179.8 754.2 179.6 754.3 179.6L755.3 179.5V166.8L754.1 166.9C754.1 166.9 751.5 167.1 750.3 167.1C744.4 167.1 743.2 165.7 743.2 159V131.6H757V118H743.2V102.8Z" fill="#003C46"></path><path d="M254.8 98.4002C254.8 103 251.1 106.6 246.6 106.6C242.1 106.6 238.4 102.9 238.4 98.4002C238.4 93.8002 242.1 90.2002 246.6 90.2002C251.1 90.2002 254.8 93.9002 254.8 98.4002Z" fill="#003C46"></path><path d="M580.5 98.4002C580.5 103 576.8 106.6 572.3 106.6C567.8 106.6 564.1 102.9 564.1 98.4002C564.1 93.8002 567.8 90.2002 572.3 90.2002C576.8 90.2002 580.5 93.9002 580.5 98.4002Z" fill="#003C46"></path><path fill-rule="evenodd" clip-rule="evenodd" d="M213 105.9L144.2 176.5C139.9 180.9 132.8 181.1 128.2 177L90 142L105.5 125.1L135.5 152.6L196.5 90L213 105.9Z" fill="#0096FF"></path></svg>