<?xml version="1.0" encoding="UTF-8" standalone="no"?>
<svg
   xmlns:dc="http://purl.org/dc/elements/1.1/"
   xmlns:cc="http://creativecommons.org/ns#"
   xmlns:rdf="http://www.w3.org/1999/02/22-rdf-syntax-ns#"
   xmlns:svg="http://www.w3.org/2000/svg"
   xmlns="http://www.w3.org/2000/svg"
   viewBox="0 0 293.33334 186.66667"
   height="186.66667"
   width="293.33334"
   xml:space="preserve"
   id="svg2"
   version="1.1"><metadata
     id="metadata8"><rdf:RDF><cc:Work
         rdf:about=""><dc:format>image/svg+xml</dc:format><dc:type
           rdf:resource="http://purl.org/dc/dcmitype/StillImage" /></cc:Work></rdf:RDF></metadata><defs
     id="defs6" /><g
     transform="matrix(1.3333333,0,0,-1.3333333,0,186.66667)"
     id="g10"><g
       transform="scale(0.1)"
       id="g12"><path
         id="path14"
         style="fill:#ffffff;fill-opacity:1;fill-rule:nonzero;stroke:none"
         d="m 498.344,111.879 c -8.242,0 -15.203,6.961 -15.203,15.199 v 913.572 c 0,8.24 6.961,15.21 15.203,15.21 l 459.879,-0.01 c 8.242,0 15.203,-6.96 15.203,-15.21 V 896.363 h 25.054 c 46.8,0 84.88,-38.078 84.88,-84.879 0,-24.535 -8.81,-46.617 -24.17,-60.586 -17.24,-15.668 -38.8,-24.296 -60.71,-24.296 H 973.426 V 600.617 h 144.284 c 8.24,0 15.2,-6.961 15.2,-15.203 v -40.258 c 0,-14.047 5.99,-28.426 16.02,-38.457 10.03,-10.031 24.41,-16.019 38.46,-16.019 30.54,0 54.47,23.929 54.47,54.476 v 41.813 c 0,8.238 6.96,15.203 15.21,15.203 h 161.37 c 8.1,-0.188 14.87,-7.074 14.87,-15.207 V 127.078 c 0,-8.238 -6.97,-15.199 -15.21,-15.199 z m 419.621,298.848 c -14.047,0 -28.426,-5.989 -38.457,-16.016 -10.031,-10.031 -16.02,-24.41 -16.02,-38.461 0,-30.551 23.93,-54.48 54.477,-54.48 h 40.258 c 8.242,0 15.203,-6.961 15.203,-15.2 V 142.289 h 427.644 v 2.109 l 0.28,-0.277 -0.01,426.098 h -129.07 v -25.055 c 0,-46.805 -38.08,-84.883 -84.89,-84.883 -24.53,0 -46.61,8.813 -60.58,24.176 -15.67,17.234 -24.3,38.793 -24.3,60.707 v 25.055 L 973.426,570.211 V 425.93 c 0,-8.242 -6.961,-15.203 -15.203,-15.203 z M 513.543,143.84 h 427.926 v 129.082 h -25.055 c -46.805,0 -84.883,38.078 -84.883,84.879 0,24.527 8.813,46.613 24.176,60.582 17.234,15.668 38.793,24.297 60.707,24.297 h 25.055 V 568.664 H 797.184 c -8.239,0 -15.2,6.961 -15.2,15.203 v 40.258 c 0,14.051 -5.988,28.426 -16.019,38.457 -10.031,10.031 -24.41,16.02 -38.457,16.02 -30.547,0 -54.477,-23.93 -54.477,-54.477 v -40.258 c 0,-8.242 -6.961,-15.203 -15.203,-15.203 H 513.543 Z m 215.516,568.265 c 23.816,0 44.785,-8.382 60.64,-24.238 15.61,-17.172 24.239,-38.73 24.239,-60.64 v -25.055 h 129.078 v 141.183 c 0,8.243 6.964,15.204 15.203,15.204 h 40.258 c 14.053,0 28.423,5.988 38.453,16.019 10.04,10.031 16.02,24.406 16.02,38.457 0,30.547 -23.93,54.477 -54.473,54.477 h -40.258 c -8.239,0 -15.203,6.961 -15.203,15.203 V 1027 H 515.098 V 602.172 h 129.078 v 25.055 c 0,46.8 38.078,84.878 84.883,84.878" /><path
         id="path16"
         style="fill:#ffffff;fill-opacity:1;fill-rule:nonzero;stroke:none"
         d="m 1541.97,799.379 c -8.24,0 -15.2,6.961 -15.2,15.203 v 40.258 c 0,30.547 -23.93,54.476 -54.47,54.476 -14.05,0 -28.43,-5.988 -38.46,-16.019 -10.03,-10.031 -16.02,-24.406 -16.02,-38.457 v -40.254 c 0,-8.238 -6.96,-15.199 -15.2,-15.199 h -159.49 c -8.24,0 -15.2,6.961 -15.2,15.199 v 144.285 h -25.06 c -23.81,0 -44.78,8.379 -60.64,24.234 -15.61,17.175 -24.24,38.735 -24.24,60.645 0,46.8 38.08,84.88 84.88,84.88 h 25.06 v 144.29 c 0,8.24 6.96,15.2 15.2,15.2 l 459.88,-0.01 c 4.21,0 8.29,-1.84 10.91,-4.95 2.39,-2.81 3.37,-6.34 2.77,-9.95 l -0.03,-0.14 V 814.582 c 0,-8.242 -6.96,-15.203 -15.2,-15.203 z m -68.13,140.344 c 46.81,0 84.88,-38.078 84.88,-84.883 l 0.01,-26.602 130.63,-0.004 v 429.476 h -429.48 v -144.28 c 0,-8.24 -6.96,-15.21 -15.2,-15.21 h -40.26 c -30.54,0 -54.47,-23.92 -54.47,-54.47 0,-14.05 5.99,-28.43 16.02,-38.46 10.03,-10.032 24.4,-16.02 38.45,-16.02 h 40.26 c 8.24,0 15.2,-6.961 15.2,-15.2 V 829.785 h 129.08 v 25.055 c 0,24.535 8.81,46.617 24.18,60.586 17.23,15.668 38.79,24.297 60.7,24.297" /></g></g></svg>