<?xml version="1.0" encoding="UTF-8" standalone="no"?>
<svg
   xmlns:dc="http://purl.org/dc/elements/1.1/"
   xmlns:cc="http://creativecommons.org/ns#"
   xmlns:rdf="http://www.w3.org/1999/02/22-rdf-syntax-ns#"
   xmlns:svg="http://www.w3.org/2000/svg"
   xmlns="http://www.w3.org/2000/svg"
   viewBox="0 0 293.33334 186.66667"
   height="186.66667"
   width="293.33334"
   xml:space="preserve"
   id="svg2"
   version="1.1"><metadata
     id="metadata8"><rdf:RDF><cc:Work
         rdf:about=""><dc:format>image/svg+xml</dc:format><dc:type
           rdf:resource="http://purl.org/dc/dcmitype/StillImage" /></cc:Work></rdf:RDF></metadata><defs
     id="defs6" /><g
     transform="matrix(1.3333333,0,0,-1.3333333,0,186.66667)"
     id="g10"><g
       transform="scale(0.1)"
       id="g12"><path
         id="path14"
         style="fill:#ffffff;fill-opacity:1;fill-rule:nonzero;stroke:none"
         d="m 1032.63,137.449 c -8.23,0 -15.99,3.223 -21.84,9.071 -5.85,5.851 -9.07,13.601 -9.07,21.839 v 167.192 c 0,8.23 3.22,15.988 9.07,21.84 5.85,5.847 13.6,9.07 21.84,9.07 h 167.19 c 8.23,0 15.99,-3.223 21.84,-9.07 5.85,-5.852 9.07,-13.602 9.07,-21.84 V 168.359 c 0,-8.23 -3.22,-15.988 -9.07,-21.839 -5.85,-5.848 -13.6,-9.071 -21.84,-9.071 z m 0,203.063 c -1.31,0 -2.55,-0.524 -3.49,-1.473 -0.94,-0.937 -1.47,-2.18 -1.47,-3.488 V 168.359 c 0,-1.308 0.52,-2.55 1.47,-3.488 0.94,-0.941 2.18,-1.461 3.49,-1.461 h 167.19 c 1.31,0 2.55,0.52 3.49,1.461 0.95,0.938 1.47,2.18 1.47,3.488 v 167.192 c 0,1.308 -0.52,2.551 -1.47,3.488 -0.94,0.949 -2.18,1.473 -3.49,1.473 z m 0.01,81.011 c -8.23,0 -15.99,3.223 -21.84,9.067 -5.85,5.848 -9.07,13.605 -9.07,21.84 v 100.648 c 0,45.715 13.92,86.176 42.54,123.695 25.13,32.938 58.38,59.825 90.53,85.829 56.35,45.57 109.57,88.613 109.57,158.66 0,36.883 -14.79,71.562 -41.63,97.648 -26.95,26.19 -62.81,40.61 -101,40.61 -43.76,0 -78.65,-14.31 -103.693,-42.54 -32.668,-36.8 -43.563,-90.949 -46.949,-129.89 -0.817,-9.367 -5.215,-17.906 -12.391,-24.047 -6.48,-5.547 -14.719,-8.602 -23.195,-8.602 -0.813,0 -1.641,0.028 -2.453,0.086 l -1.188,0.082 -0.023,0.012 -131.024,8.977 c -4.859,0.332 -9.414,1.543 -13.531,3.597 -4.109,2.043 -7.816,4.95 -11.02,8.637 -3.156,3.629 -5.5,7.707 -6.972,12.121 -1.473,4.414 -2.039,9.074 -1.696,13.856 2.293,31.832 5.969,69.425 15.875,106.871 10.098,38.2 25.563,71.96 47.286,103.25 32.152,46.3 75.914,84.63 126.554,110.84 50.289,26.02 107.14,39.78 164.4,39.78 47.3,0 93.2,-9.01 136.42,-26.79 41.75,-17.17 79.25,-41.75 111.47,-73.06 32.25,-31.34 57.58,-67.85 75.27,-108.5 18.32,-42.11 27.61,-86.833 27.61,-132.934 0,-49.231 -10.57,-96.77 -31.41,-141.301 -20.62,-44.051 -51.42,-84.199 -89.06,-116.113 -46.72,-39.606 -71.3,-63.395 -84.56,-91.485 -12.79,-27.074 -15.53,-58.66 -16.73,-118.918 l 0.01,-1.019 c 0,-8.231 -3.22,-15.989 -9.07,-21.836 -5.84,-5.848 -13.6,-9.071 -21.84,-9.071 z m 69.08,663.967 c 44.94,0 87.22,-17.04 119.06,-47.99 31.94,-31.04 49.53,-72.312 49.53,-116.227 0,-37.121 -12.23,-70.644 -37.4,-102.484 -22.22,-28.121 -51.19,-51.551 -81.86,-76.355 -60.66,-49.059 -123.38,-99.786 -123.38,-189.344 V 452.441 c 0,-1.304 0.52,-2.543 1.47,-3.488 0.94,-0.945 2.18,-1.465 3.48,-1.465 h 167.2 c 1.3,0 2.54,0.524 3.49,1.465 0.94,0.945 1.46,2.184 1.46,3.488 v 0.664 l 0.04,0.172 c 1.27,64.575 4.37,98.766 19.19,130.168 15.31,32.407 41.62,58.129 91.25,100.203 34.84,29.532 63.32,66.633 82.35,107.301 19.19,40.985 28.92,84.836 28.92,130.328 0,84.173 -33.73,163.323 -94.99,222.863 -61.35,59.63 -142.97,92.47 -229.82,92.47 -53.18,0 -105.921,-12.75 -152.511,-36.86 -46.859,-24.25 -87.367,-59.73 -117.144,-102.62 -19.989,-28.79 -34.227,-59.88 -43.528,-95.05 -9.343,-35.353 -12.859,-71.451 -15.066,-102.107 -0.106,-1.457 0.027,-2.754 0.394,-3.856 0.372,-1.109 1.036,-2.219 1.981,-3.304 0.914,-1.055 1.898,-1.836 3.008,-2.387 1.09,-0.539 2.304,-0.852 3.711,-0.949 l 2.16,-0.149 0.012,-0.012 130.05,-8.91 c 0.227,-0.015 0.457,-0.023 0.684,-0.023 2.336,0 4.598,0.836 6.371,2.355 1.961,1.68 3.164,4.024 3.387,6.602 3.722,42.808 16.011,102.687 53.418,144.83 30.233,34.05 71.643,51.32 123.083,51.32" /></g></g></svg>