<?xml version="1.0" encoding="UTF-8"?>
<svg id="Layer_1" data-name="Layer 1" xmlns="http://www.w3.org/2000/svg" viewBox="0 0 239.09 100" width="239px" height="100px">
  <defs>
    <style>
      .cls-1 {
        fill: #231f20;
      }

      .cls-2 {
        fill: #0089cf;
      }
    </style>
  </defs>
  <g>
    <path class="cls-2" d="M34.43,46.09c0-.21.16-.42.37-.42s.38.21.38.42-.16.37-.38.37-.37-.16-.37-.37"/>
    <path class="cls-2" d="M82.75,24.02c-2.19-.27-7.15.27-11.41,1.22,2.67-1.33,3.42-1.54,4.37-2.13.26-.16.43-.53.43-1.12,0-.64-.58-.74-1.27-.64-.7.06-2.19.59-4.01,1.23-3.63,1.49-8.85,3.94-15.03,8.11-5.44,3.73-9.06,6.93-13.01,10.93-1.03,1.05-2.21,2.36-3.45,3.82-.28-.48-.44-.59-.92-.46,1.39-3.15,1.54-3.31,2.29-5.12.32-.86.16-1.5-.16-1.87-.43-.75-1.02-.22-1.39.05-.58.69-.75.85-2.03,2.45,1.6-5.33,2.45-5.76,3.94-8.8.16-.37.16-1.01-.05-1.49-.16-.37-.37-.59-.69-.42-.59.27-.75.58-1.87,1.92,1.6-3.04,3.79-6.61,4-7.19.26-.64.63-.75-.05-1.71-.54-.8-1.01-.22-1.39.16-.32.16-.96.91-2.08,2.24,2.34-4.37,4.53-6.4,4.96-7.15.53-.85.59-1.07.16-2.03-.38-.85-1.13-.48-1.49,0-1.66,1.6-1.55,1.23-4.32,4.43,1.44-3.79,3.95-6.67,4.85-8.16.38-.58.43-.8.05-2.24-.21-.64-.74-.86-1.28-.8-.8.16-1.55.59-3.04,1.86-3.04,2.72-7.09,6.67-10.4,13.76-3.2,6.66-3.89,12.96-3.89,17.28,0,6.71,1.76,12.52,3.38,16.17,0-.14-.02-.25-.02-.39-.1-1.81.22-3.89.54-4.9.68-2.67,1.56-4.1,2.3-5.26l-1.29-1.77,1.71.53-1.01-2.24s1.28.15,2.28,1.47c.62-.56,1.88-1.06,3.1-.08.8-.06,1.28.11,1.71.32.91.53.8,1.49.74,1.7-.48-.43-1.81-1.28-3.25-.16l2.67.91-3.36.26v3.47l-4,3.56v1.37l2.74-2.41v1.26l-4.82,4.33v1.32l6.09-5.47h0s1.53-1.36,1.53-1.36h.01c.91-.74,1.28-1.11,1.82-1.38.64-.43.75.05.85.74.16.58.85,1.18,2.3-.16,4.26-3.84,8.74-5.92,13.48-8.21-2.56,1.75-7.3,4.36-8.9,6.13-.69.8,0,2.77,1.12,1.92,2.03-1.34,4.69-1.54,6.03-1.5.64,0,1.34-.42,1.71-.96.37-.48.37-1.01-.48-1.07,4.37-1.33,5.49-1.7,9.12-2.02.96-.05,1.55-.58,1.7-1.39.16-.74-.21-.96-1.12-1.06-1.07-.16-2.94.16-4.8.48,4.22-1.81,9.33-2.77,13.39-3.94,1.28-.37,1.44-.75,1.5-1.49.15-.8-.48-.8-1.92-.8-2.93.16-7.3.43-13.97,2.35,6.29-3.15,9.81-4.64,15.52-6.08,1.54-.43,1.81-.8,1.92-1.6.27-.91-.49-.91-1.01-.8-.8.05-2.72,0-6.62,1.17,3.8-1.65,7.94-3.57,10.93-4.53.65-.22,1.02-.64,1.02-1.34,0-.53-.16-.59-.8-.59-1.28,0-3.36.43-5.87,1.17,5.12-2.18,6.66-2.93,10.07-3.52,1.12-.27,1.34-.64,1.39-1.33.16-.96-.48-.91-1.22-.96M31.98,41.4c-.05-.43-.26-.69-.64-.9.75-1.81,1.49-3.26,2.93-5.17-1.33,2.67-1.97,4.91-2.3,6.08M27.34,39.91c1.01-10.88,5.97-18.88,9.34-22.55-4.85,7.15-7.63,17.06-9.34,22.55M45.47,43c6.35-6.02,15.04-12.42,26.02-15.14-9.28,3.3-22.02,12-26.02,15.14"/>
    <path class="cls-2" d="M58.27,57.82c-.58-1.6-2.13-2.67-4.26-2.5-1.17-2.24-3.04-1.18-3.57-.53.58.53,1.06.75,1.76.85v.48c-1.33-.05-1.76-.58-2.66-1.55-.38,3.2,3.36,4.33,4.53,1.71,1.76-.05,2.83.74,3.2,1.86.37,1.12,0,2.35-.59,2.93-1.07,1.28-2.78,1.28-4.32.48-.95-.48-1.98-1.49-2.88-2.45-1.33-1.49-2.08-2.14-3.1-2.67-.56-.26-1.11-.4-1.66-.48-.32-.06-.64-.1-.95-.11-.31,0-.59.03-.85.08-2.28.25-4.6,1.37-7.36,1.62h-1.49c-.93.81-5.38,4.8-5.38,4.8.21,1.65.26,2.45.26,3.94,0,1.23-.05,1.82-.05,2.35-.05.53-.16.96-.32,1.38-.11.38-.43.69-.96.75-.48.1-1.6-.75-1.97-.22-.32.43.05,1.44.37,1.7h3.15c.38-.8.53-1.28.75-1.75.27-.38.49-.97.69-1.34.22-.37.43-.91.54-1.28.05-.38.21-.75.26-1.01.22-.6.53-1.13.75-1.44.05-.1.12-.18.17-.26.14.21.27.41.36.57.75,1.18,1.39,2.09,2.45,2.51.42.21.69.38.85.54.16.15.16.64.11.95,0,.43-.16.8-.59.96-.7.27-1.81-.74-2.24-.21-.37.42.06,1.23.43,1.75h2.87c.7-1.12.96-2.66.96-3.94s0-1.65-.8-1.97c-.27-.16-.53-.8-.75-1.49,0-.08,0-.21,0-.37,1.37-.45,2.89-1.25,4.55-2.48,0,.22.02.44.04.66.26,1.82.47,3.47,1.86,4.8.37.38.69.75.74.96,0,.16-.21.74-.37,1.01-.32.69-1.01,1.27-1.54,1.33-.69.1-1.49-.8-2.03-.26-.48.48.16,1.49.48,1.75h2.93c.96-1.75,2.29-3.25,2.78-4.21.26-.69.26-.96-.27-1.17-.96-.54-.85-1.71-.58-3.04.07-.22.18-.44.3-.66.72,2.02,1.67,3.91,3.86,4.49.37.05.9.32.96.43,0,.1,0,.53-.06.85-.1.64-.48,1.39-.96,1.76-.53.43-1.86-.96-2.29-.16-.31.64.22,1.5.49,1.7h2.83c.79-1.75,1.49-3.31,1.71-4.42.21-1.34.21-1.82-.81-2.03-.53-.06-.96-.27-1.12-1.02-.38-1.33-.32-3.57-1.33-5.12,1.12,1.33,2.34,2.29,3.41,2.83,2.45,1.33,5.01.85,6.24-.91.8-1.34.8-2.83.48-3.79"/>
  </g>
  <g>
    <rect class="cls-1" x="102.06" y="75.19" width="2.61" height="13.77"/>
    <polygon class="cls-1" points="106.49 77.46 110 77.46 110 88.96 112.64 88.96 112.64 77.46 116.15 77.46 116.15 75.19 106.49 75.19 106.49 77.46"/>
    <polygon class="cls-1" points="120.86 85.16 118.85 78.58 116.23 78.58 119.82 88.96 121.86 88.96 125.47 78.58 122.86 78.58 120.86 85.16"/>
    <path class="cls-1" d="M132.06,74.99c-3.33,0-5.01,1.84-5.01,5.49v3.15c0,3.65,1.64,5.49,4.93,5.49,1.54,0,2.77-.44,3.69-1.3.9-.86,1.36-2.26,1.36-4.19v-3.15c0-1.94-.44-3.35-1.34-4.21-.9-.86-2.1-1.28-3.63-1.28ZM134.42,83.59c0,1.1-.2,1.92-.58,2.42-.38.52-.98.78-1.78.78-.84,0-1.44-.26-1.82-.76-.38-.5-.56-1.3-.56-2.43v-2.97c0-1.2.18-2.06.56-2.57.38-.5.98-.76,1.82-.76s1.4.26,1.78.78c.38.54.58,1.38.58,2.55v2.97Z"/>
    <polygon class="cls-1" points="145.13 81.77 145.13 82.52 228.17 81.84 145.13 81.77"/>
    <polygon class="cls-1" points="11 82.44 94.04 82.52 94.04 81.77 11 82.44"/>
    <path class="cls-1" d="M89.5,49.16l-2.65-.47c-1.2-.22-2.07-.58-2.62-1.09-.55-.51-.84-1.2-.84-2.07,0-.98.33-1.78.95-2.36.62-.54,1.56-.84,2.8-.84s2.14.29,2.76.84c.62.55.98,1.45,1.05,2.65h4.58c-.18-2.36-1.02-4.21-2.44-5.52-1.45-1.31-3.42-1.96-5.89-1.96s-4.58.69-6.1,2.04c-1.56,1.34-2.33,3.2-2.33,5.52,0,3.89,2.25,6.21,6.8,6.98l2.36.4c1.16.18,2,.55,2.54,1.05.54.54.8,1.31.8,2.29,0,2.22-1.34,3.31-4.03,3.31-1.42,0-2.47-.29-3.16-.87-.73-.55-1.16-1.53-1.34-2.91h-4.51c.18,2.54,1.02,4.47,2.51,5.81,1.49,1.34,3.6,2.03,6.29,2.03s4.91-.65,6.54-2c1.6-1.34,2.4-3.27,2.4-5.78,0-3.92-2.15-6.29-6.47-7.05Z"/>
    <path class="cls-1" d="M108.01,63.98c2.33,0,4.14-.62,5.45-1.82,1.31-1.2,1.96-2.83,1.96-4.91v-.25h-4.29v.22c0,.87-.25,1.56-.8,2.03-.54.47-1.31.73-2.25.73-1.05,0-1.85-.29-2.4-.91-.58-.62-.87-1.63-.87-3.05v-3.42c0-2.65,1.09-3.96,3.27-3.96.95,0,1.71.25,2.25.76.54.51.8,1.2.8,2.11v.22h4.29v-.36c0-2.11-.65-3.74-1.96-4.94-1.31-1.2-3.12-1.78-5.45-1.78s-4.25.65-5.6,1.93c-1.38,1.27-2.07,3.27-2.07,5.96v3.53c0,2.73.69,4.72,2.07,6,1.34,1.27,3.23,1.92,5.6,1.92Z"/>
    <rect class="cls-1" x="120.6" y="38.69" width="4.58" height="3.6"/>
    <rect class="cls-1" x="120.67" y="44.87" width="4.47" height="18.9"/>
    <path class="cls-1" d="M148.65,55.7v-.25h-4.69v.29c0,1.27-.36,2.25-1.05,2.98-.73.73-1.78,1.09-3.12,1.09-1.53,0-2.65-.47-3.34-1.38-.73-.91-1.09-2.4-1.09-4.43v-5.41c0-2.14.36-3.71,1.05-4.65.69-.95,1.78-1.42,3.31-1.42,1.34,0,2.4.36,3.16,1.13.73.76,1.09,1.78,1.09,3.05v.22h4.76v-.25c0-2.65-.8-4.69-2.43-6.14-1.64-1.45-3.82-2.18-6.54-2.18-6.14,0-9.19,3.34-9.19,9.99v5.74c0,6.65,3.05,9.99,9.12,9.99,2.8,0,4.98-.73,6.58-2.18,1.6-1.42,2.4-3.49,2.4-6.18Z"/>
    <path class="cls-1" d="M158.99,63.77h2.07v-3.89h-1.53c-.62,0-1.09-.18-1.34-.51-.29-.33-.44-.87-.44-1.63v-19.04h-4.51v19.33c0,1.85.51,3.27,1.53,4.25.98.98,2.4,1.49,4.21,1.49Z"/>
    <path class="cls-1" d="M172.47,63.98c2.36,0,4.21-.65,5.56-1.92,1.34-1.27,2.04-3.27,2.04-6v-3.53c0-2.69-.69-4.69-2.04-5.96-1.34-1.27-3.2-1.93-5.56-1.93s-4.25.65-5.6,1.93c-1.38,1.27-2.07,3.27-2.07,5.96v3.53c0,2.73.69,4.72,2.07,6,1.34,1.27,3.23,1.92,5.6,1.92ZM169.28,52.61c0-2.65,1.05-3.96,3.2-3.96s3.12,1.31,3.12,3.96v3.42c0,2.65-1.05,3.96-3.12,3.96s-3.2-1.31-3.2-3.96v-3.42Z"/>
    <path class="cls-1" d="M192.62,63.98c2.51,0,4.4-.65,5.63-1.96,1.24-1.31,1.85-3.27,1.85-5.89v-11.26h-4.51v11.05c0,1.42-.18,2.44-.58,3.09-.4.65-1.2.98-2.4.98s-1.96-.36-2.36-1.05c-.4-.69-.62-1.67-.62-3.02v-11.05h-4.51v11.26c0,5.23,2.51,7.85,7.49,7.85Z"/>
    <path class="cls-1" d="M211.41,63.98c1.93,0,3.38-.65,4.43-1.96v1.74h4.4v-25.07h-4.47v8.1c-1.05-1.42-2.51-2.14-4.4-2.14s-3.34.65-4.47,1.93c-1.16,1.27-1.74,3.23-1.74,5.85v3.74c0,2.62.58,4.58,1.78,5.85,1.16,1.31,2.65,1.96,4.47,1.96ZM209.67,52.61c0-2.65,1.02-3.96,3.02-3.96.98,0,1.74.33,2.29,1.02.55.69.8,1.67.8,2.94v3.42c0,1.27-.29,2.25-.84,2.94-.55.69-1.34,1.02-2.36,1.02-1.93,0-2.91-1.31-2.91-3.96v-3.42Z"/>
  </g>
</svg>