<svg width="152" height="34" viewBox="0 0 152 34" fill="none" xmlns="http://www.w3.org/2000/svg">
<path d="M14.1865 27.6231C12.8526 27.6231 11.6204 26.9091 10.9533 25.7504L3.24912 12.3622C3.15056 12.1908 2.90357 12.1908 2.80501 12.3622L0.945069 15.5945C0.27832 16.7532 0.27832 18.181 0.945069 19.3402L7.79346 31.2412C8.46021 32.3999 9.69282 33.1138 11.0267 33.1138H24.7239C26.0578 33.1138 27.29 32.3999 27.9571 31.2412L29.8171 28.0089C29.9156 27.8375 29.7923 27.6231 29.5952 27.6231H21.8911H14.1865Z" fill="#0FCDD0"/>
<path d="M22.6115 5.49078C23.9454 5.49078 25.1776 6.2047 25.8448 7.36343L33.5489 20.7516C33.6475 20.923 33.8945 20.923 33.993 20.7516L35.853 17.5194C36.5197 16.3606 36.5197 14.9328 35.853 13.7737L29.0046 1.87266C28.3374 0.713929 27.1052 0 25.7713 0H12.0742C10.7403 0 9.50804 0.713929 8.84091 1.87266L6.98096 5.10492C6.8824 5.27633 7.0057 5.49078 7.20283 5.49078H14.9072H22.6115Z" fill="#0FCDD0"/>
<path d="M19.6972 10.5554H16.758H13.8189C12.5129 10.5554 11.3062 11.2546 10.6529 12.3893L8.77058 15.6603C8.67201 15.8317 8.79531 16.0462 8.99244 16.0462H16.537C17.8708 16.0462 19.1031 16.7601 19.7702 17.9189L23.5427 24.4741C23.6412 24.6455 23.8882 24.6455 23.9868 24.4741L25.8691 21.2031C26.522 20.0684 26.522 18.67 25.8691 17.5353L22.93 12.4281C22.2633 11.2693 21.031 10.5554 19.6972 10.5554Z" fill="#0FCDD0"/>
<path d="M138.4 20.7872H151.432C151.5 20.7872 151.556 20.7318 151.556 20.6631V19.5335C151.556 16.8441 150.79 14.5806 149.341 12.9867C147.878 11.3774 145.784 10.5266 143.286 10.5266C140.788 10.5266 138.577 11.4278 137.038 13.1326C135.516 14.8191 134.712 17.1687 134.712 19.9271C134.712 25.6409 138.052 29.1903 143.43 29.1903C146.927 29.1903 149.888 27.4968 150.973 24.8761L150.985 24.8474C151.008 24.7927 150.977 24.7307 150.92 24.716L148.013 23.9729L147.978 23.9625C147.932 23.9489 147.883 23.971 147.862 24.0148L147.853 24.0358C147.18 25.49 145.553 26.3579 143.502 26.3579C140.411 26.3579 138.321 24.2599 138.178 21.0129C138.176 20.947 138.201 20.8853 138.251 20.8407C138.291 20.8043 138.345 20.7864 138.4 20.7864V20.7872ZM138.224 17.9722C138.389 16.6293 138.944 15.4806 139.829 14.6508C140.73 13.8062 141.907 13.3594 143.233 13.3594C144.629 13.3594 145.83 13.8418 146.705 14.7547C147.544 15.6292 148.016 16.8224 148.075 18.2119H138.437C138.375 18.2119 138.316 18.1851 138.275 18.139C138.234 18.0924 138.216 18.0335 138.224 17.9722Z" fill="#202629"/>
<path d="M83.2058 10.9153H80.1979C80.1447 10.9153 80.1016 10.9585 80.1016 11.0118V28.7825C80.1016 28.8358 80.1447 28.879 80.1979 28.879H83.2058C83.2589 28.879 83.302 28.8358 83.302 28.7825V11.0118C83.302 10.9585 83.2589 10.9153 83.2058 10.9153Z" fill="#202629"/>
<path d="M118.441 10.8354C118.388 10.8354 118.344 10.8788 118.344 10.9323V21.4163C118.344 24.433 116.528 26.3072 113.606 26.3072C110.683 26.3072 109.423 24.8518 109.423 21.9814V10.9323C109.423 10.8788 109.38 10.8354 109.326 10.8354H106.151C106.097 10.8354 106.054 10.8788 106.054 10.9323V22.5119C106.054 24.5381 106.655 26.225 107.792 27.3907C108.94 28.5684 110.615 29.1908 112.637 29.1908C115.139 29.1908 117.022 28.3261 118.236 26.6178C118.263 26.5779 118.31 26.5542 118.36 26.5542C118.44 26.5542 118.506 26.6136 118.506 26.6869V28.786C118.506 28.8395 118.55 28.8829 118.603 28.8829H121.617C121.67 28.8829 121.714 28.8395 121.714 28.786V10.9327C121.714 10.8792 121.67 10.8358 121.617 10.8358H118.441L118.441 10.8354Z" fill="#202629"/>
<path d="M132.719 10.5272H132.718C132.481 10.5248 132.24 10.5376 132.004 10.5655C131.122 10.6578 130.306 10.9859 129.647 11.5137L129.636 11.5222C129.612 11.5412 129.589 11.5599 129.567 11.5785C129.143 11.9263 128.787 12.3494 128.508 12.8365C128.481 12.8702 128.438 12.89 128.392 12.89C128.316 12.89 128.253 12.8361 128.247 12.7671V10.9324C128.247 10.8789 128.204 10.8355 128.151 10.8355H125.155C125.102 10.8355 125.058 10.8789 125.058 10.9324V28.7857C125.058 28.8392 125.102 28.8826 125.155 28.8826H128.331C128.384 28.8826 128.427 28.8392 128.427 28.7857V17.6684C128.427 16.6241 128.709 15.7046 129.24 15.0089C129.767 14.3209 130.526 13.8664 131.436 13.6954C131.667 13.6567 131.906 13.6369 132.147 13.6369C132.714 13.6369 133.419 13.6919 133.788 13.7648L133.82 13.7711C133.88 13.7827 133.936 13.7369 133.936 13.6757V10.6423C133.936 10.5892 133.893 10.5462 133.841 10.5454L132.72 10.5272H132.719Z" fill="#202629"/>
<path d="M81.7017 5.77979C80.7196 5.77979 79.9207 6.58136 79.9207 7.56674C79.9207 8.55212 80.7196 9.35369 81.7017 9.35369C82.6839 9.35369 83.4828 8.55212 83.4828 7.56674C83.4828 6.58136 82.6839 5.77979 81.7017 5.77979Z" fill="#202629"/>
<path d="M57.8151 17.9073C56.7027 16.9863 55.084 16.3352 52.72 15.8586L49.7569 15.2703C47.9469 14.919 45.8693 14.2244 45.8693 11.9547C45.8693 10.9479 46.2384 10.108 46.9365 9.52552C47.7563 8.84145 49.0032 8.49438 50.6428 8.49438C52.2825 8.49438 53.5023 8.83563 54.3716 9.50923C54.9622 9.96644 55.3484 10.5664 55.52 11.2923V11.2946C55.5331 11.3478 55.5872 11.3803 55.6398 11.366L58.7872 10.5198C58.8379 10.5063 58.8684 10.4543 58.8564 10.4031L58.8522 10.3856C58.5433 9.10205 57.8557 8.03678 56.8075 7.21931C55.353 6.0854 53.2325 5.48587 50.6761 5.48587C45.4441 5.48587 42.3203 7.90415 42.3203 11.9543C42.3203 13.6637 42.9058 15.057 44.0604 16.0951C45.1442 17.0697 46.7146 17.7471 48.8606 18.1663L51.9238 18.7876C53.4362 19.0804 54.4022 19.4282 55.0554 19.9145C55.818 20.4823 56.1732 21.2551 56.1732 22.3468C56.1732 23.5369 55.7465 24.4657 54.9046 25.1067C53.9998 25.7962 52.6431 26.1456 50.8732 26.1456C48.9994 26.1456 47.5457 25.7182 46.5523 24.8756C45.8627 24.2904 45.4117 23.5109 45.2126 22.5593L45.2068 22.5314C45.1952 22.4767 45.1407 22.4429 45.087 22.4577L41.8908 23.317C41.841 23.3302 41.8104 23.3806 41.8213 23.431L41.8267 23.4559C42.1401 24.9407 42.8811 26.1797 44.0295 27.1391C45.6328 28.4786 47.9878 29.1863 50.8407 29.1863C53.6937 29.1863 55.7457 28.6027 57.2906 27.4517C58.8819 26.2662 59.7226 24.4897 59.7226 22.3142C59.7226 20.4117 59.0988 18.9702 57.8151 17.9073Z" fill="#202629"/>
<path d="M101.653 17.9073C100.54 16.9863 98.9218 16.3352 96.5578 15.8586L93.5947 15.2703C91.7846 14.919 89.7071 14.2244 89.7071 11.9547C89.7071 10.9479 90.0762 10.108 90.7743 9.52552C91.5941 8.84145 92.841 8.49438 94.4806 8.49438C96.1202 8.49438 97.3401 8.83563 98.2094 9.50923C98.8 9.96644 99.1865 10.5664 99.3577 11.2923L99.3593 11.2989C99.3721 11.352 99.4258 11.3846 99.4783 11.3703L102.626 10.5241C102.676 10.5105 102.707 10.4586 102.695 10.4074L102.69 10.3856C102.381 9.10205 101.693 8.03678 100.645 7.21931C99.1908 6.0854 97.0703 5.48587 94.5139 5.48587C89.2819 5.48587 86.158 7.90415 86.158 11.9543C86.158 13.6637 86.7436 15.057 87.8982 16.0951C88.982 17.0697 90.5524 17.7471 92.6984 18.1663L95.7616 18.7876C97.274 19.0804 98.2399 19.4282 98.8931 19.9145C99.6558 20.4823 100.011 21.2551 100.011 22.3468C100.011 23.5369 99.5842 24.4657 98.7424 25.1067C97.8376 25.7962 96.4809 26.1456 94.711 26.1456C92.8371 26.1456 91.3834 25.7182 90.3901 24.8756C89.7005 24.2904 89.2494 23.5109 89.0504 22.5593L89.0446 22.5314C89.033 22.4767 88.9785 22.4429 88.9248 22.4577L85.7286 23.317C85.6788 23.3302 85.6482 23.3802 85.659 23.431L85.6645 23.4559C85.9779 24.9407 86.7189 26.1797 87.8672 27.1391C89.4705 28.4786 91.8256 29.1863 94.6785 29.1863C97.5314 29.1863 99.5835 28.6027 101.128 27.4517C102.72 26.2662 103.56 24.4897 103.56 22.3142C103.56 20.4117 102.937 18.9702 101.653 17.9073Z" fill="#202629"/>
<path d="M74.5704 23.8751C74.2083 24.6541 73.6582 25.2606 72.9366 25.6779C72.1941 26.1068 71.2889 26.3244 70.2452 26.3244C68.674 26.3244 67.3448 25.7372 66.4009 24.6266C65.4284 23.4822 64.9143 21.8337 64.9143 19.8591C64.9143 17.8844 65.4226 16.284 66.3839 15.1291C67.3289 13.9937 68.6516 13.3938 70.2093 13.3938C71.2908 13.3938 72.2308 13.6427 73.0027 14.1341C73.6942 14.5738 74.2399 15.2125 74.5805 15.9804L74.5847 15.99C74.6041 16.0339 74.6524 16.0567 74.6984 16.0443L77.6622 15.2474C77.7183 15.2323 77.7488 15.1714 77.7268 15.1171L77.7202 15.1004C77.1887 13.7788 76.2587 12.6581 75.0315 11.8593C73.693 10.9879 72.0194 10.5272 70.1915 10.5272C67.6208 10.5272 65.4389 11.4048 63.8823 13.0649C62.3185 14.7332 61.4917 17.0825 61.4917 19.8591C61.4917 22.6357 62.3223 25.0454 63.8943 26.6986C65.4443 28.3289 67.6343 29.1909 70.2275 29.1909C71.9548 29.1909 73.5647 28.7737 74.8827 27.9837C76.176 27.2089 77.1559 26.0991 77.7171 24.7744L77.7256 24.7546C77.7488 24.7003 77.7183 24.6382 77.6614 24.6227L74.6833 23.8219C74.6381 23.8099 74.5905 23.832 74.5704 23.8747V23.8751Z" fill="#202629"/>
</svg>
