<?xml version="1.0" encoding="UTF-8" standalone="no"?>
<svg
   xmlns:dc="http://purl.org/dc/elements/1.1/"
   xmlns:cc="http://creativecommons.org/ns#"
   xmlns:rdf="http://www.w3.org/1999/02/22-rdf-syntax-ns#"
   xmlns:svg="http://www.w3.org/2000/svg"
   xmlns="http://www.w3.org/2000/svg"
   viewBox="0 0 293.33334 186.66667"
   height="186.66667"
   width="293.33334"
   xml:space="preserve"
   id="svg2"
   version="1.1"><metadata
     id="metadata8"><rdf:RDF><cc:Work
         rdf:about=""><dc:format>image/svg+xml</dc:format><dc:type
           rdf:resource="http://purl.org/dc/dcmitype/StillImage" /></cc:Work></rdf:RDF></metadata><defs
     id="defs6" /><g
     transform="matrix(1.3333333,0,0,-1.3333333,0,186.66667)"
     id="g10"><g
       transform="scale(0.1)"
       id="g12"><path
         id="path14"
         style="fill:#764f92;fill-opacity:1;fill-rule:nonzero;stroke:none"
         d="m 737.496,171.398 c -3.445,0.442 -7.918,0.633 -12.652,0.832 -16.567,0.692 -35.34,1.469 -39.985,14.739 -1.093,4.14 0.235,9.062 3.594,12.422 l 52.918,52.91 c 11.637,11.14 18.348,27.461 18.332,44.699 -0.019,17.16 -6.734,33.398 -18.426,44.539 -11.793,11.801 -27.625,18.34 -44.472,18.34 -16.852,0 -32.68,-6.539 -44.571,-18.43 l -52.918,-52.918 c -3.003,-3.179 -6.55,-3.832 -9.015,-3.832 -5.391,0 -11.668,3.301 -13.223,9.61 -15.484,57.16 0.93,118.582 42.809,160.41 31.363,31.375 73.058,48.652 117.398,48.652 10.926,0 21.817,-1.055 32.383,-3.137 l 3.023,-0.593 213.969,213.972 -220.847,220.84 -106.137,53.055 c -2.27,1.133 -4.16,2.879 -5.469,5.058 L 573.23,1127.51 c -3.16,5.25 -2.332,11.94 2,16.28 l 80.973,80.98 c 2.512,2.5 5.856,3.89 9.43,3.89 2.418,0 4.797,-0.66 6.871,-1.9 l 134.976,-80.97 c 2.184,-1.32 3.938,-3.2 5.067,-5.46 l 53.09,-106.15 220.843,-220.84 213.97,213.92 -0.59,3.01 c -2.09,10.61 -3.14,21.52 -3.14,32.44 0,44.31 17.28,85.99 48.65,117.36 30.86,30.85 73.62,48.55 117.31,48.55 14.52,0 28.98,-1.92 42.96,-5.71 4.56,-1.07 7.94,-4.57 9.23,-9.41 1.02,-3.78 0.71,-9.11 -3.16,-12.73 l -53.06,-53.06 c -24.58,-24.57 -24.58,-64.55 0,-89.13 11.14,-11.62 27.43,-18.33 44.61,-18.33 17.15,0 33.41,6.71 44.61,18.42 l 52.83,52.78 c 3,3.18 6.53,3.82 8.99,3.82 5.41,0 11.69,-3.3 13.25,-9.61 15.49,-57.11 -0.92,-118.519 -42.8,-160.406 -31.46,-31.277 -73.05,-48.512 -117.11,-48.512 -10.84,0 -21.8,1.059 -32.56,3.145 l -3.01,0.582 -214.05,-214.055 37.93,-37.926 3.67,1.75 c 6.97,3.309 14.72,5.059 22.44,5.059 13.66,0 26.46,-5.289 36.04,-14.899 l 283.39,-283.386 -0.02,-0.024 c 31.33,-30.316 40.24,-75.226 23.25,-117.199 -17.07,-42.187 -54.76,-68.391 -98.38,-68.391 l -1.74,0.012 c -29.19,0 -56.5,11.309 -76.98,31.852 l -283.44,283.386 c -15.25,15.286 -19.21,38.79 -9.85,58.481 l 1.74,3.68 -37.92,37.933 -214.044,-214.051 0.707,-3.101 c 10.485,-46.051 -1.711,-95.27 -33.449,-135.051 -32.051,-40.16 -77.727,-63.187 -125.324,-63.187 -1.305,0 -2.621,0.007 -3.934,0.046 z M 696.25,386.891 c 35.316,0 68.938,-22.871 83.66,-56.911 14.262,-32.968 7.078,-68.23 -19.711,-96.742 l -35.433,-35.418 14.125,0.129 c 32.308,0.321 64.023,12.242 88.648,33.031 l 0.039,-0.3 8.301,7.91 c 25.859,24.801 40.684,60.769 40.672,98.691 -0.004,37.879 -14.832,73.821 -40.676,98.59 -25.246,26.125 -59.32,40.602 -95.793,40.602 -38.484,0 -76.121,-15.668 -103.254,-42.973 -25.226,-25.395 -38.992,-59.09 -38.762,-94.879 l 0.094,-13.789 35.336,35.316 c 18.621,17.454 40.363,26.743 62.754,26.743 z m 580.94,241.925 c -6.79,0 -13.41,-2.808 -18.16,-7.707 l -80.14,-80.14 c -4.76,-4.614 -7.56,-11.141 -7.61,-17.864 -0.05,-6.691 2.51,-12.972 7.23,-17.695 l 283.44,-283.39 c 14.84,-14.829 36,-23.34 58.07,-23.34 22.07,0 43.24,8.511 58.08,23.34 15.15,14.519 23.89,35.691 23.9,57.992 0.01,22.34 -8.74,43.539 -24,58.187 l -283.35,283.356 c -4.62,4.672 -10.83,7.261 -17.46,7.261 z m -475.741,-138.355 7.477,-3.481 c 33.41,-15.558 62.652,-44.8 78.222,-78.226 l 3.485,-7.469 204.207,204.203 -89.18,89.184 z m -21.187,466.555 c 1.074,-0.594 2.039,-1.325 2.922,-2.211 l 385.956,-385.864 62.09,62.082 -386.015,385.957 c -1.274,1.24 -2.25,2.7 -2.949,4.38 l -51.782,103.56 -122.738,73.61 -66.254,-66.26 73.656,-122.73 105.012,-52.536 z m 325.168,-162.61 89.19,-89.183 204.28,204.289 -7.53,3.465 c -33.48,15.375 -62.74,44.578 -78.27,78.121 l -3.48,7.5 z m 258.92,366.904 c -25.85,-24.8 -40.68,-60.76 -40.68,-98.64 0,-37.89 14.83,-73.842 40.68,-98.647 25.45,-26.089 59.6,-40.535 96.04,-40.535 38.32,0 75.8,15.563 102.82,42.696 25.26,25.371 39.1,59.136 38.95,95.076 l -0.06,13.85 -35.37,-35.37 c -18.58,-17.47 -40.31,-26.77 -62.71,-26.77 -35.33,0 -68.97,22.87 -83.7,56.9 -14.27,32.95 -7.08,68.22 19.71,96.78 l 35.46,35.45 -14.16,-0.15 c -32.84,-0.37 -63.91,-12 -88.62,-32.99 l -0.04,0.28 -8.32,-7.93" /></g></g></svg>