<?xml version="1.0" encoding="UTF-8" standalone="no"?>
<svg
   xmlns:dc="http://purl.org/dc/elements/1.1/"
   xmlns:cc="http://creativecommons.org/ns#"
   xmlns:rdf="http://www.w3.org/1999/02/22-rdf-syntax-ns#"
   xmlns:svg="http://www.w3.org/2000/svg"
   xmlns="http://www.w3.org/2000/svg"
   viewBox="0 0 293.33334 186.66667"
   height="186.66667"
   width="293.33334"
   xml:space="preserve"
   id="svg2"
   version="1.1"><metadata
     id="metadata8"><rdf:RDF><cc:Work
         rdf:about=""><dc:format>image/svg+xml</dc:format><dc:type
           rdf:resource="http://purl.org/dc/dcmitype/StillImage" /></cc:Work></rdf:RDF></metadata><defs
     id="defs6" /><g
     transform="matrix(1.3333333,0,0,-1.3333333,0,186.66667)"
     id="g10"><g
       transform="scale(0.1)"
       id="g12"><path
         id="path14"
         style="fill:#e29229;fill-opacity:1;fill-rule:nonzero;stroke:none"
         d="m 150.371,441.328 c -5.187,0.379 -9.953,2.899 -13.187,6.992 -2.098,2.77 -3.387,6.246 -3.614,9.895 -0.226,3.66 0.618,7.273 2.446,10.437 l 76.16,125.946 -2.469,4.461 c -20.168,36.476 -30.887,77.757 -30.988,119.394 0.023,51.477 17.019,102.555 47.859,143.809 30.844,41.246 75.039,71.988 124.438,86.574 22.109,6.527 45.004,9.836 68.054,9.836 28.575,0 56.649,-5.031 83.45,-14.961 48.293,-17.879 90.308,-51.543 118.3,-94.785 27.993,-43.231 41.5,-95.34 38.039,-146.735 -3.468,-51.39 -23.832,-101.218 -57.355,-140.312 -33.531,-39.098 -79.668,-66.828 -129.938,-78.078 -17.207,-3.848 -34.867,-5.805 -52.496,-5.805 -34.117,0 -67.199,7.078 -98.32,21.031 l -3.246,1.457 -159.402,-57.613 z m 98.094,163.684 c 1.836,-2.75 2.808,-5.961 2.808,-9.27 0,-3.308 -0.972,-6.512 -2.808,-9.258 l -55.258,-93.289 119.383,43.309 c 2.172,0.789 4.426,1.191 6.715,1.191 2.871,0 5.644,-0.621 8.254,-1.836 27.3,-14.078 58.3,-21.601 89.339,-21.601 l 2.18,0.008 c 40.445,0 79.633,11.808 113.328,34.156 33.996,22.539 60.266,54.355 75.965,92.012 15.707,37.652 19.82,78.699 11.902,118.718 -7.898,39.996 -27.324,76.395 -56.179,105.258 -28.856,28.852 -65.25,48.278 -105.262,56.18 -13.07,2.586 -26.457,3.898 -39.785,3.898 -27.234,0 -53.789,-5.316 -78.93,-15.8 -37.652,-15.711 -69.472,-41.977 -92.008,-75.973 -22.543,-33.996 -34.355,-73.531 -34.16,-114.324 -0.078,-40.528 11.864,-79.774 34.543,-113.418 l -0.027,0.039" /><path
         id="path16"
         style="fill:#e29229;fill-opacity:1;fill-rule:nonzero;stroke:none"
         d="m 853.906,441.328 c -5.187,0.379 -9.953,2.899 -13.187,6.992 -2.098,2.77 -3.387,6.246 -3.614,9.895 -0.226,3.66 0.618,7.273 2.446,10.437 l 76.16,125.946 -2.465,4.461 c -20.172,36.476 -30.887,77.757 -30.992,119.394 0.023,51.477 17.019,102.555 47.863,143.809 30.84,41.246 75.033,71.988 124.433,86.574 22.11,6.527 45.01,9.836 68.06,9.836 28.57,0 56.65,-5.031 83.45,-14.961 48.29,-17.879 90.31,-51.543 118.3,-94.785 27.99,-43.231 41.5,-95.34 38.04,-146.735 -3.47,-51.39 -23.83,-101.218 -57.36,-140.312 -33.53,-39.098 -79.67,-66.828 -129.94,-78.078 -17.2,-3.848 -34.86,-5.805 -52.49,-5.805 -34.12,0 -67.2,7.078 -98.32,21.031 l -3.25,1.457 -159.403,-57.613 z m 98.098,163.684 c 1.836,-2.75 2.805,-5.961 2.805,-9.27 0,-3.308 -0.969,-6.512 -2.805,-9.258 l -55.258,-93.289 119.374,43.309 c 2.18,0.789 4.43,1.191 6.72,1.191 2.87,0 5.65,-0.621 8.26,-1.836 27.3,-14.078 58.3,-21.601 89.33,-21.601 l 2.18,0.008 c 40.45,0 79.64,11.808 113.33,34.156 34,22.539 60.27,54.355 75.97,92.012 15.7,37.652 19.82,78.699 11.9,118.718 -7.9,39.996 -27.32,76.395 -56.18,105.258 -28.85,28.852 -65.25,48.278 -105.26,56.18 -13.07,2.586 -26.46,3.898 -39.79,3.898 -27.23,0 -53.79,-5.316 -78.93,-15.8 -37.65,-15.711 -69.466,-41.977 -92.005,-75.973 -22.543,-33.996 -34.356,-73.531 -34.157,-114.324 -0.082,-40.528 11.864,-79.774 34.539,-113.418 l -0.023,0.039" /><path
         id="path18"
         style="fill:#e29229;fill-opacity:1;fill-rule:nonzero;stroke:none"
         d="m 1557.44,441.328 c -5.18,0.379 -9.95,2.899 -13.18,6.992 -2.1,2.77 -3.39,6.246 -3.62,9.895 -0.22,3.66 0.62,7.273 2.45,10.437 l 76.16,125.946 -2.47,4.461 c -20.17,36.476 -30.89,77.757 -30.99,119.394 0.02,51.477 17.02,102.555 47.86,143.809 30.84,41.246 75.04,71.988 124.44,86.574 22.11,6.527 45,9.836 68.05,9.836 28.58,0 56.65,-5.031 83.45,-14.961 48.3,-17.879 90.31,-51.543 118.3,-94.785 27.99,-43.231 41.5,-95.34 38.04,-146.735 -3.47,-51.39 -23.83,-101.218 -57.35,-140.312 -33.53,-39.098 -79.67,-66.828 -129.94,-78.078 -17.21,-3.848 -34.87,-5.805 -52.5,-5.805 -34.12,0 -67.19,7.078 -98.32,21.031 l -3.25,1.457 -159.4,-57.613 z m 98.1,163.684 c 1.83,-2.75 2.81,-5.961 2.81,-9.27 0,-3.308 -0.98,-6.512 -2.81,-9.258 l -55.26,-93.289 119.38,43.309 c 2.17,0.789 4.43,1.191 6.72,1.191 2.87,0 5.64,-0.621 8.25,-1.836 27.3,-14.078 58.3,-21.601 89.34,-21.601 l 2.18,0.008 c 40.45,0 79.63,11.808 113.33,34.156 33.99,22.539 60.26,54.355 75.97,92.012 15.7,37.652 19.81,78.699 11.9,118.718 -7.9,39.996 -27.33,76.395 -56.18,105.258 -28.86,28.852 -65.25,48.278 -105.27,56.18 -13.07,2.586 -26.45,3.898 -39.78,3.898 -27.23,0 -53.79,-5.316 -78.93,-15.8 -37.65,-15.711 -69.47,-41.977 -92.01,-75.973 -22.54,-33.996 -34.35,-73.531 -34.16,-114.324 -0.08,-40.528 11.87,-79.774 34.54,-113.418 l -0.02,0.039" /></g></g></svg>