<?xml version="1.0" encoding="UTF-8" standalone="no"?>
<svg
   xmlns:dc="http://purl.org/dc/elements/1.1/"
   xmlns:cc="http://creativecommons.org/ns#"
   xmlns:rdf="http://www.w3.org/1999/02/22-rdf-syntax-ns#"
   xmlns:svg="http://www.w3.org/2000/svg"
   xmlns="http://www.w3.org/2000/svg"
   viewBox="0 0 293.33334 186.66667"
   height="186.66667"
   width="293.33334"
   xml:space="preserve"
   id="svg2"
   version="1.1"><metadata
     id="metadata8"><rdf:RDF><cc:Work
         rdf:about=""><dc:format>image/svg+xml</dc:format><dc:type
           rdf:resource="http://purl.org/dc/dcmitype/StillImage" /></cc:Work></rdf:RDF></metadata><defs
     id="defs6" /><g
     transform="matrix(1.3333333,0,0,-1.3333333,0,186.66667)"
     id="g10"><g
       transform="scale(0.1)"
       id="g12"><path
         id="path14"
         style="fill:#646363;fill-opacity:1;fill-rule:nonzero;stroke:none"
         d="m 1497.76,171.352 c -13.22,4.918 -35.05,17 -38.73,43.777 v 366.387 l -0.08,0.418 c -1.34,6.586 5.59,15.296 10.66,21.652 3.19,4.016 5.71,7.184 6.57,10.027 2.27,7.578 1.8,15.43 1.35,23.02 -0.61,10.301 -1.24,20.953 4.57,32.18 1.27,2.453 3.75,5.093 5.93,7.417 2.18,2.325 4.07,4.329 4.99,6.348 5.41,11.809 0.31,91.649 -0.99,102.902 -4.38,37.942 -15.52,78.739 -32.21,117.985 l -8.07,-1.774 c 3.89,-127.847 -50.62,-241.285 -149.55,-311.218 -59.3,-41.922 -128.75,-64.086 -200.85,-64.09 -161.53,-0.004 -301.901,107.859 -341.358,262.312 -8.601,33.68 -9.597,62.043 -10.75,94.883 l -0.379,10.633 c -0.019,0.477 0.063,1.078 0.125,1.711 0.27,2.594 0.598,5.816 -1.523,8.168 -1.125,1.246 -2.723,1.93 -4.504,1.93 -0.332,0 -0.684,-0.024 -1.059,-0.075 l -2.488,-0.34 -0.879,-2.351 c -20.25,-54.223 -31.262,-102.145 -33.668,-146.512 -0.215,-3.969 -1.879,-66.586 1.617,-74.176 1.614,-3.496 3.961,-6.41 6.45,-9.492 3.921,-4.855 7.972,-9.875 9.304,-17.761 0.883,-5.239 0.516,-12.223 0.157,-18.973 -0.454,-8.57 -0.879,-16.668 0.937,-22.727 0.84,-2.804 3.352,-6.062 6.527,-10.191 5,-6.488 11.844,-15.375 10.684,-21.559 l -0.074,-0.383 0.004,-366.332 c -3,-20.507 -17.059,-36.437 -38.664,-43.796 h -91.793 c -19.344,7.027 -31.668,19.347 -38.696,38.687 v 375.094 c 1.981,2.691 2.926,5.648 3.778,8.305 0.64,2.003 1.246,3.894 2.226,5.57 1.02,1.738 3.207,4.168 5.133,6.312 3.262,3.621 5.297,5.961 5.996,8.293 2.27,7.578 1.805,15.426 1.356,23.02 -0.614,10.297 -1.246,20.945 4.57,32.18 1.105,2.14 3.23,4.578 5.285,6.933 3.238,3.719 6.301,7.231 7.051,11.121 2.316,12.098 1.504,29.625 0.711,46.574 -0.543,11.676 -1.055,22.707 -0.578,31.61 7.07,132.105 61.082,251.239 152.09,335.469 89.273,82.63 209.507,128.14 338.552,128.14 24.96,0 50.44,-1.71 75.74,-5.08 118.84,-15.82 221.38,-68.39 296.52,-152.04 74.41,-82.833 116.95,-190.31 123.02,-310.802 0.42,-8.324 -0.07,-18.633 -0.6,-29.55 -0.78,-16.11 -1.59,-32.766 0.63,-44.321 0.6,-3.164 3.22,-6.758 6.53,-11.304 3.72,-5.114 8.35,-11.473 9.7,-17.079 1.62,-6.75 1.25,-14.867 0.9,-22.718 -0.38,-8.192 -0.73,-15.926 1.12,-22.149 0.88,-2.91 3.42,-6.25 6.64,-10.472 5.26,-6.907 12.47,-16.368 10.72,-23.141 l -0.13,-0.516 -0.28,-366.25 c -3.87,-19.609 -17.86,-34.84 -38.47,-41.886 z m -11.61,43.507 c 0,-7.597 12.07,-15.281 18.11,-16.23 8.78,-1.367 25.42,-1.57 34.57,-1.57 15.11,0 31.06,0.523 39.67,1.3 7.07,0.653 22.58,5.692 22.58,16.5 v 134.039 h -114.93 z m -887.724,0 c 0,-7.597 12.07,-15.281 18.109,-16.23 8.778,-1.367 25.426,-1.57 34.567,-1.57 15.113,0 31.058,0.523 39.675,1.3 7.075,0.653 22.582,5.692 22.582,16.5 V 348.898 H 598.426 Z m 887.724,161.153 h 114.93 v 61.672 h -114.93 z m -887.724,0 h 114.933 v 61.672 H 598.426 Z m 950.004,222.871 c -15.12,0 -31.07,-0.524 -39.7,-1.305 -7.07,-0.64 -22.58,-5.683 -22.58,-16.5 V 464.793 h 114.93 v 116.285 c 0,7.606 -12.07,15.285 -18.11,16.231 -8.77,1.371 -25.41,1.574 -34.54,1.574 z m -897.348,0 c -9.137,0 -25.773,-0.203 -34.547,-1.574 -6.039,-0.946 -18.109,-8.625 -18.109,-16.231 V 464.793 h 114.933 v 116.285 c 0,10.817 -15.507,15.86 -22.582,16.5 -8.629,0.781 -24.578,1.305 -39.695,1.305 z m 449.238,602.647 c -8.51,0 -17.18,-0.34 -25.75,-1.01 -81.504,-6.38 -160.683,-47.13 -217.234,-111.8 -57.5,-65.75 -86.387,-147.591 -81.336,-230.439 5.461,-89.644 43.027,-166.902 108.633,-223.41 60.32,-51.953 138.077,-80.57 218.947,-80.574 112.84,0 212.09,56.031 272.3,153.734 61.59,99.946 63.8,221.532 5.9,325.239 -57.95,103.78 -165.79,168.26 -281.46,168.26 z m 441.86,-532.491 c -6.12,0 -20.93,-0.246 -26.29,-2.531 -12.96,-5.543 -12.45,-20.137 -12.08,-30.793 0.08,-2.445 0.17,-4.75 0.1,-6.777 l -0.15,-4.34 h 79.79 l -0.23,4.418 c -0.11,2.238 -0.02,4.793 0.09,7.492 0.38,10.133 0.87,22.742 -10.24,28.992 -5.84,3.285 -25.19,3.539 -30.99,3.539 z m -887.723,0 c -6.121,0 -20.937,-0.246 -26.285,-2.531 -12.965,-5.539 -12.457,-20.133 -12.09,-30.789 0.086,-2.446 0.168,-4.754 0.102,-6.781 l -0.149,-4.34 h 79.789 l -0.226,4.418 c -0.118,2.238 -0.02,4.789 0.082,7.488 0.39,10.133 0.871,22.746 -10.242,28.996 -5.833,3.285 -25.188,3.539 -30.981,3.539 z m 699.673,454.491 c 0.42,-7.3 5.71,-12.15 10.37,-16.43 1.86,-1.7 3.61,-3.31 4.89,-4.9 16.86,-21.06 29.39,-42.28 42.64,-64.75 l 2.68,-4.52 c 7.92,-13.41 16.39,-26.67 24.57,-39.485 19.45,-30.461 39.57,-61.957 53.26,-97.058 22.56,-57.824 32.08,-122.067 29.12,-196.395 l -0.17,-4.371 h 43.89 l 0.19,4 c 8.79,182.516 -69.79,346.419 -205.08,427.759 l -6.82,4.09 z m -510.618,6.1 C 704.707,1049.02 624.402,884.25 633.941,699.609 l 0.204,-3.988 h 43.933 l -0.234,4.426 c -4.973,93.777 14.129,179.383 56.777,254.433 8.434,14.84 18.457,29.012 28.145,42.719 14.593,20.641 29.679,41.981 40.117,66.511 l 46.066,59.71 -5.437,6.21" /><path
         id="path16"
         style="fill:#646363;fill-opacity:1;fill-rule:nonzero;stroke:none"
         d="m 1098.44,597.746 c -74.23,0 -144.159,28.918 -196.901,81.422 -57.141,56.879 -85.984,132.062 -81.223,211.707 4.813,80.449 44.594,155.545 109.149,206.025 50.383,39.4 108.705,60.23 168.665,60.23 90.35,0 179.62,-47.78 232.97,-124.7 52.57,-75.793 63.39,-166 30.48,-254 -41.06,-109.762 -144.34,-180.684 -263.14,-180.684 z m 1.86,532.444 c -83.78,0 -165.402,-45.43 -212.999,-118.57 -46.602,-71.6 -53.215,-158.097 -18.145,-237.311 40.133,-90.657 131.054,-149.235 231.624,-149.239 66.54,-0.004 129.21,25.758 176.48,72.543 54.76,54.196 81.64,128.512 73.76,203.899 -8.03,76.883 -50.64,145.438 -116.89,188.088 -41.85,26.94 -86.88,40.59 -133.83,40.59" /></g></g></svg>